<svg xmlns="http://www.w3.org/2000/svg" width="900" height="320" viewBox="0 0 900 320" role="img" aria-labelledby="title desc">
<title id="title">unsorry proofs over time</title>
<desc id="desc">Cumulative kernel-verified proofs over time, by the hour each proof was merged.</desc>
<rect width="900" height="100%" rx="18" fill="#ffffff"/>
<rect x="0.5" y="0.5" width="899" height="319" rx="18" fill="none" stroke="#e2e8f0"/>
<text x="32" y="44" font-family="Inter, system-ui, sans-serif" font-size="28" font-weight="700" fill="#334155">unsorry — Proofs Over Time</text>
<text x="32" y="72" font-family="Inter, system-ui, sans-serif" font-size="13" fill="#64748b">4768 cumulative kernel-verified proofs · merged, hourly · last proof Jun 30 10:00 UTC</text>
<line x1="52" y1="272.0" x2="872" y2="272.0" stroke="#f1f5f9"/>
<text x="44" y="276.0" text-anchor="end" font-family="Inter, system-ui, sans-serif" font-size="11" fill="#94a3b8">0</text>
<line x1="52" y1="226.5" x2="872" y2="226.5" stroke="#f1f5f9"/>
<text x="44" y="230.5" text-anchor="end" font-family="Inter, system-ui, sans-serif" font-size="11" fill="#94a3b8">1192</text>
<line x1="52" y1="181.0" x2="872" y2="181.0" stroke="#f1f5f9"/>
<text x="44" y="185.0" text-anchor="end" font-family="Inter, system-ui, sans-serif" font-size="11" fill="#94a3b8">2384</text>
<line x1="52" y1="135.5" x2="872" y2="135.5" stroke="#f1f5f9"/>
<text x="44" y="139.5" text-anchor="end" font-family="Inter, system-ui, sans-serif" font-size="11" fill="#94a3b8">3576</text>
<line x1="52" y1="90.0" x2="872" y2="90.0" stroke="#f1f5f9"/>
<text x="44" y="94.0" text-anchor="end" font-family="Inter, system-ui, sans-serif" font-size="11" fill="#94a3b8">4768</text>
<polygon points="52.0,272.0 52.0,272.0 53.6,272.0 53.6,271.9 73.0,271.9 73.0,271.5 74.6,271.5 74.6,271.4 76.2,271.4 76.2,271.4 81.1,271.4 81.1,271.3 90.7,271.3 90.7,271.3 111.7,271.3 111.7,271.2 113.3,271.2 113.3,270.9 115.0,270.9 115.0,270.9 119.8,270.9 119.8,270.8 121.4,270.8 121.4,270.7 123.0,270.7 123.0,270.7 124.6,270.7 124.6,270.6 127.9,270.6 127.9,270.5 129.5,270.5 129.5,270.4 134.3,270.4 134.3,270.2 140.8,270.2 140.8,270.1 142.4,270.1 142.4,270.0 144.0,270.0 144.0,269.9 156.9,269.9 156.9,269.9 160.1,269.9 160.1,269.9 168.2,269.9 168.2,269.8 169.8,269.8 169.8,269.8 171.4,269.8 171.4,269.7 177.9,269.7 177.9,269.7 179.5,269.7 179.5,269.4 181.1,269.4 181.1,269.3 182.7,269.3 182.7,268.8 184.4,268.8 184.4,268.7 195.7,268.7 195.7,268.6 200.5,268.6 200.5,268.6 203.7,268.6 203.7,268.6 205.3,268.6 205.3,268.5 207.0,268.5 207.0,268.3 208.6,268.3 208.6,268.3 210.2,268.3 210.2,268.3 211.8,268.3 211.8,268.1 213.4,268.1 213.4,268.0 219.9,268.0 219.9,267.8 223.1,267.8 223.1,267.8 229.6,267.8 229.6,267.8 231.2,267.8 231.2,267.6 232.8,267.6 232.8,267.5 234.4,267.5 234.4,267.5 237.6,267.5 237.6,267.4 239.2,267.4 239.2,266.7 240.9,266.7 240.9,265.9 242.5,265.9 242.5,265.6 244.1,265.6 244.1,265.4 245.7,265.4 245.7,265.4 247.3,265.4 247.3,265.2 248.9,265.2 248.9,264.9 250.5,264.9 250.5,264.7 252.2,264.7 252.2,264.6 253.8,264.6 253.8,264.5 257.0,264.5 257.0,264.4 258.6,264.4 258.6,264.1 260.2,264.1 260.2,263.8 261.8,263.8 261.8,263.5 263.5,263.5 263.5,263.3 266.7,263.3 266.7,263.2 269.9,263.2 269.9,263.2 271.5,263.2 271.5,262.9 273.1,262.9 273.1,262.7 274.8,262.7 274.8,262.2 276.4,262.2 276.4,261.9 278.0,261.9 278.0,261.6 279.6,261.6 279.6,261.3 281.2,261.3 281.2,260.9 282.8,260.9 282.8,260.6 284.4,260.6 284.4,260.2 286.1,260.2 286.1,259.8 287.7,259.8 287.7,259.4 289.3,259.4 289.3,259.1 290.9,259.1 290.9,258.8 292.5,258.8 292.5,258.6 294.1,258.6 294.1,258.3 295.7,258.3 295.7,258.1 297.4,258.1 297.4,257.9 299.0,257.9 299.0,257.7 300.6,257.7 300.6,257.6 302.2,257.6 302.2,257.6 305.4,257.6 305.4,257.5 307.0,257.5 307.0,256.8 308.7,256.8 308.7,256.2 310.3,256.2 310.3,256.1 311.9,256.1 311.9,256.1 315.1,256.1 315.1,256.0 316.7,256.0 316.7,255.9 323.2,255.9 323.2,255.9 326.4,255.9 326.4,255.8 331.3,255.8 331.3,255.7 332.9,255.7 332.9,254.9 334.5,254.9 334.5,254.0 336.1,254.0 336.1,253.8 337.7,253.8 337.7,253.1 339.3,253.1 339.3,252.6 340.9,252.6 340.9,252.2 342.6,252.2 342.6,252.0 344.2,252.0 344.2,251.7 345.8,251.7 345.8,251.5 347.4,251.5 347.4,251.5 349.0,251.5 349.0,251.3 350.6,251.3 350.6,251.2 360.3,251.2 360.3,250.6 361.9,250.6 361.9,249.9 363.5,249.9 363.5,249.7 365.1,249.7 365.1,249.6 366.8,249.6 366.8,249.6 378.1,249.6 378.1,249.6 392.6,249.6 392.6,248.8 394.2,248.8 394.2,248.1 395.8,248.1 395.8,247.4 397.4,247.4 397.4,246.3 399.0,246.3 399.0,246.2 400.7,246.2 400.7,245.8 402.3,245.8 402.3,245.2 403.9,245.2 403.9,244.7 405.5,244.7 405.5,243.7 407.1,243.7 407.1,242.2 408.7,242.2 408.7,240.7 410.3,240.7 410.3,238.9 412.0,238.9 412.0,237.1 413.6,237.1 413.6,235.5 415.2,235.5 415.2,234.5 416.8,234.5 416.8,233.3 418.4,233.3 418.4,231.6 420.0,231.6 420.0,230.1 421.6,230.1 421.6,229.1 423.3,229.1 423.3,228.1 424.9,228.1 424.9,226.6 426.5,226.6 426.5,225.7 428.1,225.7 428.1,224.8 429.7,224.8 429.7,224.0 431.3,224.0 431.3,223.4 432.9,223.4 432.9,222.6 434.6,222.6 434.6,222.1 436.2,222.1 436.2,221.5 437.8,221.5 437.8,221.1 439.4,221.1 439.4,219.7 441.0,219.7 441.0,218.6 442.6,218.6 442.6,218.0 444.2,218.0 444.2,217.8 445.9,217.8 445.9,217.5 447.5,217.5 447.5,216.9 449.1,216.9 449.1,216.4 450.7,216.4 450.7,215.5 452.3,215.5 452.3,214.9 453.9,214.9 453.9,214.4 455.5,214.4 455.5,214.3 457.2,214.3 457.2,214.1 458.8,214.1 458.8,213.6 460.4,213.6 460.4,212.5 462.0,212.5 462.0,210.7 463.6,210.7 463.6,208.9 465.2,208.9 465.2,207.0 466.8,207.0 466.8,205.5 468.5,205.5 468.5,203.7 470.1,203.7 470.1,201.8 471.7,201.8 471.7,199.8 473.3,199.8 473.3,198.0 474.9,198.0 474.9,196.7 476.5,196.7 476.5,195.7 478.1,195.7 478.1,194.5 479.8,194.5 479.8,193.4 481.4,193.4 481.4,192.6 483.0,192.6 483.0,191.7 484.6,191.7 484.6,191.0 486.2,191.0 486.2,190.0 487.8,190.0 487.8,188.7 489.4,188.7 489.4,187.1 491.1,187.1 491.1,185.7 492.7,185.7 492.7,184.5 494.3,184.5 494.3,183.8 495.9,183.8 495.9,183.1 497.5,183.1 497.5,182.4 499.1,182.4 499.1,181.6 500.7,181.6 500.7,180.4 502.4,180.4 502.4,179.2 504.0,179.2 504.0,177.9 505.6,177.9 505.6,176.5 507.2,176.5 507.2,175.4 508.8,175.4 508.8,174.5 510.4,174.5 510.4,174.1 512.0,174.1 512.0,173.6 513.7,173.6 513.7,173.0 515.3,173.0 515.3,172.9 516.9,172.9 516.9,172.9 518.5,172.9 518.5,172.6 520.1,172.6 520.1,172.5 521.7,172.5 521.7,172.4 523.3,172.4 523.3,172.3 525.0,172.3 525.0,172.2 529.8,172.2 529.8,172.1 531.4,172.1 531.4,172.1 533.0,172.1 533.0,171.9 534.6,171.9 534.6,170.3 536.3,170.3 536.3,169.0 537.9,169.0 537.9,167.8 539.5,167.8 539.5,166.5 541.1,166.5 541.1,165.3 542.7,165.3 542.7,164.1 544.3,164.1 544.3,162.8 545.9,162.8 545.9,161.7 547.6,161.7 547.6,160.4 549.2,160.4 549.2,159.3 550.8,159.3 550.8,158.1 552.4,158.1 552.4,157.0 554.0,157.0 554.0,155.8 555.6,155.8 555.6,154.7 557.2,154.7 557.2,153.6 558.9,153.6 558.9,152.6 560.5,152.6 560.5,151.6 562.1,151.6 562.1,150.5 563.7,150.5 563.7,149.4 565.3,149.4 565.3,148.4 566.9,148.4 566.9,147.4 568.5,147.4 568.5,146.7 570.1,146.7 570.1,146.0 571.8,146.0 571.8,145.3 573.4,145.3 573.4,144.4 575.0,144.4 575.0,143.5 576.6,143.5 576.6,142.6 578.2,142.6 578.2,141.6 579.8,141.6 579.8,140.7 581.4,140.7 581.4,139.9 583.1,139.9 583.1,139.0 584.7,139.0 584.7,138.1 586.3,138.1 586.3,137.2 587.9,137.2 587.9,136.4 589.5,136.4 589.5,135.4 591.1,135.4 591.1,134.6 592.7,134.6 592.7,133.7 594.4,133.7 594.4,133.0 596.0,133.0 596.0,132.3 597.6,132.3 597.6,131.4 599.2,131.4 599.2,130.6 600.8,130.6 600.8,129.9 602.4,129.9 602.4,129.2 604.0,129.2 604.0,128.7 605.7,128.7 605.7,128.3 607.3,128.3 607.3,128.2 608.9,128.2 608.9,127.4 610.5,127.4 610.5,126.7 612.1,126.7 612.1,125.9 613.7,125.9 613.7,125.1 615.3,125.1 615.3,124.5 617.0,124.5 617.0,123.7 618.6,123.7 618.6,123.0 620.2,123.0 620.2,122.3 621.8,122.3 621.8,121.6 623.4,121.6 623.4,120.9 625.0,120.9 625.0,120.3 626.6,120.3 626.6,119.6 628.3,119.6 628.3,118.9 629.9,118.9 629.9,118.2 631.5,118.2 631.5,117.6 633.1,117.6 633.1,116.9 634.7,116.9 634.7,116.2 636.3,116.2 636.3,115.7 637.9,115.7 637.9,114.9 639.6,114.9 639.6,114.4 641.2,114.4 641.2,113.8 642.8,113.8 642.8,113.0 644.4,113.0 644.4,112.3 646.0,112.3 646.0,111.6 647.6,111.6 647.6,110.9 649.2,110.9 649.2,110.2 650.9,110.2 650.9,109.7 652.5,109.7 652.5,109.1 654.1,109.1 654.1,108.3 655.7,108.3 655.7,107.8 657.3,107.8 657.3,107.4 658.9,107.4 658.9,106.8 660.5,106.8 660.5,106.1 662.2,106.1 662.2,105.5 663.8,105.5 663.8,104.7 665.4,104.7 665.4,104.0 667.0,104.0 667.0,103.4 668.6,103.4 668.6,102.8 670.2,102.8 670.2,102.2 671.8,102.2 671.8,101.5 673.5,101.5 673.5,100.9 675.1,100.9 675.1,100.3 676.7,100.3 676.7,99.7 678.3,99.7 678.3,99.0 679.9,99.0 679.9,98.6 681.5,98.6 681.5,97.9 683.1,97.9 683.1,97.3 684.8,97.3 684.8,97.0 686.4,97.0 686.4,96.4 688.0,96.4 688.0,95.6 791.3,95.6 791.3,94.4 796.1,94.4 796.1,93.3 797.7,93.3 797.7,92.6 799.4,92.6 799.4,92.3 801.0,92.3 801.0,92.1 802.6,92.1 802.6,92.0 828.4,92.0 828.4,90.1 831.6,90.1 831.6,90.0 834.9,90.0 834.9,90.0 872.0,90.0 872.0,272.0" fill="#e0f2fe" opacity="0.55"/>
<polyline points="52.0,272.0 53.6,272.0 53.6,271.9 73.0,271.9 73.0,271.5 74.6,271.5 74.6,271.4 76.2,271.4 76.2,271.4 81.1,271.4 81.1,271.3 90.7,271.3 90.7,271.3 111.7,271.3 111.7,271.2 113.3,271.2 113.3,270.9 115.0,270.9 115.0,270.9 119.8,270.9 119.8,270.8 121.4,270.8 121.4,270.7 123.0,270.7 123.0,270.7 124.6,270.7 124.6,270.6 127.9,270.6 127.9,270.5 129.5,270.5 129.5,270.4 134.3,270.4 134.3,270.2 140.8,270.2 140.8,270.1 142.4,270.1 142.4,270.0 144.0,270.0 144.0,269.9 156.9,269.9 156.9,269.9 160.1,269.9 160.1,269.9 168.2,269.9 168.2,269.8 169.8,269.8 169.8,269.8 171.4,269.8 171.4,269.7 177.9,269.7 177.9,269.7 179.5,269.7 179.5,269.4 181.1,269.4 181.1,269.3 182.7,269.3 182.7,268.8 184.4,268.8 184.4,268.7 195.7,268.7 195.7,268.6 200.5,268.6 200.5,268.6 203.7,268.6 203.7,268.6 205.3,268.6 205.3,268.5 207.0,268.5 207.0,268.3 208.6,268.3 208.6,268.3 210.2,268.3 210.2,268.3 211.8,268.3 211.8,268.1 213.4,268.1 213.4,268.0 219.9,268.0 219.9,267.8 223.1,267.8 223.1,267.8 229.6,267.8 229.6,267.8 231.2,267.8 231.2,267.6 232.8,267.6 232.8,267.5 234.4,267.5 234.4,267.5 237.6,267.5 237.6,267.4 239.2,267.4 239.2,266.7 240.9,266.7 240.9,265.9 242.5,265.9 242.5,265.6 244.1,265.6 244.1,265.4 245.7,265.4 245.7,265.4 247.3,265.4 247.3,265.2 248.9,265.2 248.9,264.9 250.5,264.9 250.5,264.7 252.2,264.7 252.2,264.6 253.8,264.6 253.8,264.5 257.0,264.5 257.0,264.4 258.6,264.4 258.6,264.1 260.2,264.1 260.2,263.8 261.8,263.8 261.8,263.5 263.5,263.5 263.5,263.3 266.7,263.3 266.7,263.2 269.9,263.2 269.9,263.2 271.5,263.2 271.5,262.9 273.1,262.9 273.1,262.7 274.8,262.7 274.8,262.2 276.4,262.2 276.4,261.9 278.0,261.9 278.0,261.6 279.6,261.6 279.6,261.3 281.2,261.3 281.2,260.9 282.8,260.9 282.8,260.6 284.4,260.6 284.4,260.2 286.1,260.2 286.1,259.8 287.7,259.8 287.7,259.4 289.3,259.4 289.3,259.1 290.9,259.1 290.9,258.8 292.5,258.8 292.5,258.6 294.1,258.6 294.1,258.3 295.7,258.3 295.7,258.1 297.4,258.1 297.4,257.9 299.0,257.9 299.0,257.7 300.6,257.7 300.6,257.6 302.2,257.6 302.2,257.6 305.4,257.6 305.4,257.5 307.0,257.5 307.0,256.8 308.7,256.8 308.7,256.2 310.3,256.2 310.3,256.1 311.9,256.1 311.9,256.1 315.1,256.1 315.1,256.0 316.7,256.0 316.7,255.9 323.2,255.9 323.2,255.9 326.4,255.9 326.4,255.8 331.3,255.8 331.3,255.7 332.9,255.7 332.9,254.9 334.5,254.9 334.5,254.0 336.1,254.0 336.1,253.8 337.7,253.8 337.7,253.1 339.3,253.1 339.3,252.6 340.9,252.6 340.9,252.2 342.6,252.2 342.6,252.0 344.2,252.0 344.2,251.7 345.8,251.7 345.8,251.5 347.4,251.5 347.4,251.5 349.0,251.5 349.0,251.3 350.6,251.3 350.6,251.2 360.3,251.2 360.3,250.6 361.9,250.6 361.9,249.9 363.5,249.9 363.5,249.7 365.1,249.7 365.1,249.6 366.8,249.6 366.8,249.6 378.1,249.6 378.1,249.6 392.6,249.6 392.6,248.8 394.2,248.8 394.2,248.1 395.8,248.1 395.8,247.4 397.4,247.4 397.4,246.3 399.0,246.3 399.0,246.2 400.7,246.2 400.7,245.8 402.3,245.8 402.3,245.2 403.9,245.2 403.9,244.7 405.5,244.7 405.5,243.7 407.1,243.7 407.1,242.2 408.7,242.2 408.7,240.7 410.3,240.7 410.3,238.9 412.0,238.9 412.0,237.1 413.6,237.1 413.6,235.5 415.2,235.5 415.2,234.5 416.8,234.5 416.8,233.3 418.4,233.3 418.4,231.6 420.0,231.6 420.0,230.1 421.6,230.1 421.6,229.1 423.3,229.1 423.3,228.1 424.9,228.1 424.9,226.6 426.5,226.6 426.5,225.7 428.1,225.7 428.1,224.8 429.7,224.8 429.7,224.0 431.3,224.0 431.3,223.4 432.9,223.4 432.9,222.6 434.6,222.6 434.6,222.1 436.2,222.1 436.2,221.5 437.8,221.5 437.8,221.1 439.4,221.1 439.4,219.7 441.0,219.7 441.0,218.6 442.6,218.6 442.6,218.0 444.2,218.0 444.2,217.8 445.9,217.8 445.9,217.5 447.5,217.5 447.5,216.9 449.1,216.9 449.1,216.4 450.7,216.4 450.7,215.5 452.3,215.5 452.3,214.9 453.9,214.9 453.9,214.4 455.5,214.4 455.5,214.3 457.2,214.3 457.2,214.1 458.8,214.1 458.8,213.6 460.4,213.6 460.4,212.5 462.0,212.5 462.0,210.7 463.6,210.7 463.6,208.9 465.2,208.9 465.2,207.0 466.8,207.0 466.8,205.5 468.5,205.5 468.5,203.7 470.1,203.7 470.1,201.8 471.7,201.8 471.7,199.8 473.3,199.8 473.3,198.0 474.9,198.0 474.9,196.7 476.5,196.7 476.5,195.7 478.1,195.7 478.1,194.5 479.8,194.5 479.8,193.4 481.4,193.4 481.4,192.6 483.0,192.6 483.0,191.7 484.6,191.7 484.6,191.0 486.2,191.0 486.2,190.0 487.8,190.0 487.8,188.7 489.4,188.7 489.4,187.1 491.1,187.1 491.1,185.7 492.7,185.7 492.7,184.5 494.3,184.5 494.3,183.8 495.9,183.8 495.9,183.1 497.5,183.1 497.5,182.4 499.1,182.4 499.1,181.6 500.7,181.6 500.7,180.4 502.4,180.4 502.4,179.2 504.0,179.2 504.0,177.9 505.6,177.9 505.6,176.5 507.2,176.5 507.2,175.4 508.8,175.4 508.8,174.5 510.4,174.5 510.4,174.1 512.0,174.1 512.0,173.6 513.7,173.6 513.7,173.0 515.3,173.0 515.3,172.9 516.9,172.9 516.9,172.9 518.5,172.9 518.5,172.6 520.1,172.6 520.1,172.5 521.7,172.5 521.7,172.4 523.3,172.4 523.3,172.3 525.0,172.3 525.0,172.2 529.8,172.2 529.8,172.1 531.4,172.1 531.4,172.1 533.0,172.1 533.0,171.9 534.6,171.9 534.6,170.3 536.3,170.3 536.3,169.0 537.9,169.0 537.9,167.8 539.5,167.8 539.5,166.5 541.1,166.5 541.1,165.3 542.7,165.3 542.7,164.1 544.3,164.1 544.3,162.8 545.9,162.8 545.9,161.7 547.6,161.7 547.6,160.4 549.2,160.4 549.2,159.3 550.8,159.3 550.8,158.1 552.4,158.1 552.4,157.0 554.0,157.0 554.0,155.8 555.6,155.8 555.6,154.7 557.2,154.7 557.2,153.6 558.9,153.6 558.9,152.6 560.5,152.6 560.5,151.6 562.1,151.6 562.1,150.5 563.7,150.5 563.7,149.4 565.3,149.4 565.3,148.4 566.9,148.4 566.9,147.4 568.5,147.4 568.5,146.7 570.1,146.7 570.1,146.0 571.8,146.0 571.8,145.3 573.4,145.3 573.4,144.4 575.0,144.4 575.0,143.5 576.6,143.5 576.6,142.6 578.2,142.6 578.2,141.6 579.8,141.6 579.8,140.7 581.4,140.7 581.4,139.9 583.1,139.9 583.1,139.0 584.7,139.0 584.7,138.1 586.3,138.1 586.3,137.2 587.9,137.2 587.9,136.4 589.5,136.4 589.5,135.4 591.1,135.4 591.1,134.6 592.7,134.6 592.7,133.7 594.4,133.7 594.4,133.0 596.0,133.0 596.0,132.3 597.6,132.3 597.6,131.4 599.2,131.4 599.2,130.6 600.8,130.6 600.8,129.9 602.4,129.9 602.4,129.2 604.0,129.2 604.0,128.7 605.7,128.7 605.7,128.3 607.3,128.3 607.3,128.2 608.9,128.2 608.9,127.4 610.5,127.4 610.5,126.7 612.1,126.7 612.1,125.9 613.7,125.9 613.7,125.1 615.3,125.1 615.3,124.5 617.0,124.5 617.0,123.7 618.6,123.7 618.6,123.0 620.2,123.0 620.2,122.3 621.8,122.3 621.8,121.6 623.4,121.6 623.4,120.9 625.0,120.9 625.0,120.3 626.6,120.3 626.6,119.6 628.3,119.6 628.3,118.9 629.9,118.9 629.9,118.2 631.5,118.2 631.5,117.6 633.1,117.6 633.1,116.9 634.7,116.9 634.7,116.2 636.3,116.2 636.3,115.7 637.9,115.7 637.9,114.9 639.6,114.9 639.6,114.4 641.2,114.4 641.2,113.8 642.8,113.8 642.8,113.0 644.4,113.0 644.4,112.3 646.0,112.3 646.0,111.6 647.6,111.6 647.6,110.9 649.2,110.9 649.2,110.2 650.9,110.2 650.9,109.7 652.5,109.7 652.5,109.1 654.1,109.1 654.1,108.3 655.7,108.3 655.7,107.8 657.3,107.8 657.3,107.4 658.9,107.4 658.9,106.8 660.5,106.8 660.5,106.1 662.2,106.1 662.2,105.5 663.8,105.5 663.8,104.7 665.4,104.7 665.4,104.0 667.0,104.0 667.0,103.4 668.6,103.4 668.6,102.8 670.2,102.8 670.2,102.2 671.8,102.2 671.8,101.5 673.5,101.5 673.5,100.9 675.1,100.9 675.1,100.3 676.7,100.3 676.7,99.7 678.3,99.7 678.3,99.0 679.9,99.0 679.9,98.6 681.5,98.6 681.5,97.9 683.1,97.9 683.1,97.3 684.8,97.3 684.8,97.0 686.4,97.0 686.4,96.4 688.0,96.4 688.0,95.6 791.3,95.6 791.3,94.4 796.1,94.4 796.1,93.3 797.7,93.3 797.7,92.6 799.4,92.6 799.4,92.3 801.0,92.3 801.0,92.1 802.6,92.1 802.6,92.0 828.4,92.0 828.4,90.1 831.6,90.1 831.6,90.0 834.9,90.0 834.9,90.0" fill="none" stroke="#38bdf8" stroke-width="2.5" stroke-linejoin="round" stroke-linecap="round"/>
<polyline points="834.9,90.0 872.0,90.0" fill="none" stroke="#94a3b8" stroke-width="1.5" stroke-dasharray="4 4" stroke-linecap="round"/>
<circle cx="834.9" cy="90.0" r="4" fill="#0ea5e9"/>
<text x="828.9" y="80.0" text-anchor="end" font-family="Inter, system-ui, sans-serif" font-size="13" font-weight="700" fill="#334155">4768</text>
<text x="52.0" y="294" text-anchor="middle" font-family="Inter, system-ui, sans-serif" font-size="11" fill="#94a3b8">Jun 10 05:00</text>
<text x="457.2" y="294" text-anchor="middle" font-family="Inter, system-ui, sans-serif" font-size="11" fill="#94a3b8">Jun 20 16:00</text>
<text x="834.9" y="294" text-anchor="middle" font-family="Inter, system-ui, sans-serif" font-size="11" fill="#94a3b8">Jun 30 10:00</text>
<text x="872.0" y="294" text-anchor="end" font-family="Inter, system-ui, sans-serif" font-size="11" fill="#94a3b8">Jul 01 09:00</text>
</svg>
