<svg xmlns="http://www.w3.org/2000/svg" width="900" height="320" viewBox="0 0 900 320" role="img" aria-labelledby="title desc">
<title id="title">unsorry proofs over time</title>
<desc id="desc">Cumulative kernel-verified proofs over time, by the hour each proof was merged.</desc>
<rect width="900" height="100%" rx="18" fill="#ffffff"/>
<rect x="0.5" y="0.5" width="899" height="319" rx="18" fill="none" stroke="#e2e8f0"/>
<text x="32" y="44" font-family="Inter, system-ui, sans-serif" font-size="28" font-weight="700" fill="#334155">unsorry — Proofs Over Time</text>
<text x="32" y="72" font-family="Inter, system-ui, sans-serif" font-size="13" fill="#64748b">4769 cumulative kernel-verified proofs · merged, hourly · last proof Jul 29 21:00 UTC</text>
<line x1="52" y1="272.0" x2="872" y2="272.0" stroke="#f1f5f9"/>
<text x="44" y="276.0" text-anchor="end" font-family="Inter, system-ui, sans-serif" font-size="11" fill="#94a3b8">0</text>
<line x1="52" y1="226.5" x2="872" y2="226.5" stroke="#f1f5f9"/>
<text x="44" y="230.5" text-anchor="end" font-family="Inter, system-ui, sans-serif" font-size="11" fill="#94a3b8">1192</text>
<line x1="52" y1="181.0" x2="872" y2="181.0" stroke="#f1f5f9"/>
<text x="44" y="185.0" text-anchor="end" font-family="Inter, system-ui, sans-serif" font-size="11" fill="#94a3b8">2384</text>
<line x1="52" y1="135.5" x2="872" y2="135.5" stroke="#f1f5f9"/>
<text x="44" y="139.5" text-anchor="end" font-family="Inter, system-ui, sans-serif" font-size="11" fill="#94a3b8">3577</text>
<line x1="52" y1="90.0" x2="872" y2="90.0" stroke="#f1f5f9"/>
<text x="44" y="94.0" text-anchor="end" font-family="Inter, system-ui, sans-serif" font-size="11" fill="#94a3b8">4769</text>
<polygon points="52.0,272.0 52.0,272.0 52.7,272.0 52.7,271.9 60.9,271.9 60.9,271.5 61.6,271.5 61.6,271.4 62.3,271.4 62.3,271.4 64.4,271.4 64.4,271.3 68.5,271.3 68.5,271.3 77.4,271.3 77.4,271.2 78.1,271.2 78.1,270.9 78.8,270.9 78.8,270.9 80.8,270.9 80.8,270.8 81.5,270.8 81.5,270.7 82.2,270.7 82.2,270.7 82.9,270.7 82.9,270.6 84.3,270.6 84.3,270.5 85.0,270.5 85.0,270.4 87.0,270.4 87.0,270.2 89.8,270.2 89.8,270.1 90.5,270.1 90.5,270.0 91.1,270.0 91.1,269.9 96.6,269.9 96.6,269.9 98.0,269.9 98.0,269.9 101.4,269.9 101.4,269.8 102.1,269.8 102.1,269.8 102.8,269.8 102.8,269.7 105.6,269.7 105.6,269.7 106.3,269.7 106.3,269.4 106.9,269.4 106.9,269.3 107.6,269.3 107.6,268.8 108.3,268.8 108.3,268.7 113.1,268.7 113.1,268.6 115.2,268.6 115.2,268.6 116.6,268.6 116.6,268.6 117.2,268.6 117.2,268.5 117.9,268.5 117.9,268.3 118.6,268.3 118.6,268.3 119.3,268.3 119.3,268.3 120.0,268.3 120.0,268.1 120.7,268.1 120.7,268.0 123.4,268.0 123.4,267.8 124.8,267.8 124.8,267.8 127.5,267.8 127.5,267.8 128.2,267.8 128.2,267.6 128.9,267.6 128.9,267.5 129.6,267.5 129.6,267.5 131.0,267.5 131.0,267.4 131.7,267.4 131.7,266.7 132.4,266.7 132.4,265.9 133.0,265.9 133.0,265.6 133.7,265.6 133.7,265.4 134.4,265.4 134.4,265.4 135.1,265.4 135.1,265.2 135.8,265.2 135.8,264.9 136.5,264.9 136.5,264.7 137.2,264.7 137.2,264.6 137.8,264.6 137.8,264.5 139.2,264.5 139.2,264.4 139.9,264.4 139.9,264.1 140.6,264.1 140.6,263.8 141.3,263.8 141.3,263.5 142.0,263.5 142.0,263.3 143.3,263.3 143.3,263.2 144.7,263.2 144.7,263.2 145.4,263.2 145.4,262.9 146.1,262.9 146.1,262.7 146.8,262.7 146.8,262.2 147.5,262.2 147.5,261.9 148.1,261.9 148.1,261.6 148.8,261.6 148.8,261.3 149.5,261.3 149.5,260.9 150.2,260.9 150.2,260.6 150.9,260.6 150.9,260.2 151.6,260.2 151.6,259.8 152.3,259.8 152.3,259.4 153.0,259.4 153.0,259.1 153.6,259.1 153.6,258.8 154.3,258.8 154.3,258.6 155.0,258.6 155.0,258.3 155.7,258.3 155.7,258.1 156.4,258.1 156.4,257.9 157.1,257.9 157.1,257.7 157.8,257.7 157.8,257.7 158.4,257.7 158.4,257.6 159.8,257.6 159.8,257.5 160.5,257.5 160.5,256.8 161.2,256.8 161.2,256.2 161.9,256.2 161.9,256.1 162.6,256.1 162.6,256.1 163.9,256.1 163.9,256.0 164.6,256.0 164.6,255.9 167.4,255.9 167.4,255.9 168.8,255.9 168.8,255.8 170.8,255.8 170.8,255.7 171.5,255.7 171.5,254.9 172.2,254.9 172.2,254.0 172.9,254.0 172.9,253.8 173.6,253.8 173.6,253.1 174.2,253.1 174.2,252.6 174.9,252.6 174.9,252.2 175.6,252.2 175.6,252.0 176.3,252.0 176.3,251.7 177.0,251.7 177.0,251.5 177.7,251.5 177.7,251.5 178.4,251.5 178.4,251.3 179.1,251.3 179.1,251.2 183.2,251.2 183.2,250.6 183.9,250.6 183.9,249.9 184.5,249.9 184.5,249.8 185.2,249.8 185.2,249.6 185.9,249.6 185.9,249.6 190.7,249.6 190.7,249.6 196.9,249.6 196.9,248.8 197.6,248.8 197.6,248.1 198.3,248.1 198.3,247.4 199.0,247.4 199.0,246.4 199.7,246.4 199.7,246.2 200.3,246.2 200.3,245.8 201.0,245.8 201.0,245.2 201.7,245.2 201.7,244.8 202.4,244.8 202.4,243.7 203.1,243.7 203.1,242.2 203.8,242.2 203.8,240.7 204.5,240.7 204.5,239.0 205.1,239.0 205.1,237.1 205.8,237.1 205.8,235.5 206.5,235.5 206.5,234.5 207.2,234.5 207.2,233.3 207.9,233.3 207.9,231.6 208.6,231.6 208.6,230.1 209.3,230.1 209.3,229.1 210.0,229.1 210.0,228.1 210.6,228.1 210.6,226.6 211.3,226.6 211.3,225.7 212.0,225.7 212.0,224.8 212.7,224.8 212.7,224.0 213.4,224.0 213.4,223.4 214.1,223.4 214.1,222.6 214.8,222.6 214.8,222.1 215.5,222.1 215.5,221.5 216.1,221.5 216.1,221.1 216.8,221.1 216.8,219.7 217.5,219.7 217.5,218.6 218.2,218.6 218.2,218.0 218.9,218.0 218.9,217.8 219.6,217.8 219.6,217.5 220.3,217.5 220.3,216.9 220.9,216.9 220.9,216.4 221.6,216.4 221.6,215.5 222.3,215.5 222.3,214.9 223.0,214.9 223.0,214.4 223.7,214.4 223.7,214.3 224.4,214.3 224.4,214.1 225.1,214.1 225.1,213.6 225.8,213.6 225.8,212.5 226.4,212.5 226.4,210.7 227.1,210.7 227.1,208.9 227.8,208.9 227.8,207.0 228.5,207.0 228.5,205.5 229.2,205.5 229.2,203.7 229.9,203.7 229.9,201.8 230.6,201.8 230.6,199.8 231.2,199.8 231.2,198.0 231.9,198.0 231.9,196.7 232.6,196.7 232.6,195.7 233.3,195.7 233.3,194.5 234.0,194.5 234.0,193.4 234.7,193.4 234.7,192.6 235.4,192.6 235.4,191.7 236.1,191.7 236.1,191.0 236.7,191.0 236.7,190.0 237.4,190.0 237.4,188.7 238.1,188.7 238.1,187.1 238.8,187.1 238.8,185.8 239.5,185.8 239.5,184.6 240.2,184.6 240.2,183.8 240.9,183.8 240.9,183.1 241.5,183.1 241.5,182.4 242.2,182.4 242.2,181.7 242.9,181.7 242.9,180.4 243.6,180.4 243.6,179.3 244.3,179.3 244.3,177.9 245.0,177.9 245.0,176.6 245.7,176.6 245.7,175.4 246.4,175.4 246.4,174.5 247.0,174.5 247.0,174.1 247.7,174.1 247.7,173.6 248.4,173.6 248.4,173.0 249.1,173.0 249.1,173.0 249.8,173.0 249.8,172.9 250.5,172.9 250.5,172.6 251.2,172.6 251.2,172.5 251.8,172.5 251.8,172.5 252.5,172.5 252.5,172.3 253.2,172.3 253.2,172.2 255.3,172.2 255.3,172.2 256.0,172.2 256.0,172.1 256.7,172.1 256.7,171.9 257.3,171.9 257.3,170.3 258.0,170.3 258.0,169.0 258.7,169.0 258.7,167.8 259.4,167.8 259.4,166.5 260.1,166.5 260.1,165.3 260.8,165.3 260.8,164.1 261.5,164.1 261.5,162.9 262.2,162.9 262.2,161.7 262.8,161.7 262.8,160.4 263.5,160.4 263.5,159.3 264.2,159.3 264.2,158.1 264.9,158.1 264.9,157.0 265.6,157.0 265.6,155.9 266.3,155.9 266.3,154.7 267.0,154.7 267.0,153.6 267.6,153.6 267.6,152.7 268.3,152.7 268.3,151.6 269.0,151.6 269.0,150.5 269.7,150.5 269.7,149.5 270.4,149.5 270.4,148.5 271.1,148.5 271.1,147.4 271.8,147.4 271.8,146.7 272.5,146.7 272.5,146.1 273.1,146.1 273.1,145.4 273.8,145.4 273.8,144.4 274.5,144.4 274.5,143.5 275.2,143.5 275.2,142.7 275.9,142.7 275.9,141.6 276.6,141.6 276.6,140.8 277.3,140.8 277.3,140.0 277.9,140.0 277.9,139.0 278.6,139.0 278.6,138.1 279.3,138.1 279.3,137.2 280.0,137.2 280.0,136.4 280.7,136.4 280.7,135.4 281.4,135.4 281.4,134.7 282.1,134.7 282.1,133.7 282.8,133.7 282.8,133.0 283.4,133.0 283.4,132.3 284.1,132.3 284.1,131.4 284.8,131.4 284.8,130.6 285.5,130.6 285.5,129.9 286.2,129.9 286.2,129.3 286.9,129.3 286.9,128.7 287.6,128.7 287.6,128.4 288.2,128.4 288.2,128.2 288.9,128.2 288.9,127.4 289.6,127.4 289.6,126.7 290.3,126.7 290.3,125.9 291.0,125.9 291.0,125.1 291.7,125.1 291.7,124.5 292.4,124.5 292.4,123.7 293.1,123.7 293.1,123.0 293.7,123.0 293.7,122.3 294.4,122.3 294.4,121.6 295.1,121.6 295.1,121.0 295.8,121.0 295.8,120.3 296.5,120.3 296.5,119.7 297.2,119.7 297.2,118.9 297.9,118.9 297.9,118.3 298.5,118.3 298.5,117.6 299.2,117.6 299.2,116.9 299.9,116.9 299.9,116.3 300.6,116.3 300.6,115.7 301.3,115.7 301.3,114.9 302.0,114.9 302.0,114.4 302.7,114.4 302.7,113.9 303.4,113.9 303.4,113.1 304.0,113.1 304.0,112.3 304.7,112.3 304.7,111.7 305.4,111.7 305.4,111.0 306.1,111.0 306.1,110.3 306.8,110.3 306.8,109.7 307.5,109.7 307.5,109.1 308.2,109.1 308.2,108.4 308.9,108.4 308.9,107.9 309.5,107.9 309.5,107.6 310.2,107.6 310.2,106.9 310.9,106.9 310.9,106.3 311.6,106.3 311.6,105.6 312.3,105.6 312.3,104.9 313.0,104.9 313.0,104.3 313.7,104.3 313.7,103.7 314.3,103.7 314.3,103.1 315.0,103.1 315.0,102.5 315.7,102.5 315.7,101.8 316.4,101.8 316.4,101.2 317.1,101.2 317.1,100.6 317.8,100.6 317.8,100.0 318.5,100.0 318.5,99.3 319.2,99.3 319.2,99.0 319.8,99.0 319.8,98.3 320.5,98.3 320.5,97.7 321.2,97.7 321.2,97.4 321.9,97.4 321.9,96.8 322.6,96.8 322.6,96.0 366.5,96.0 366.5,94.8 368.6,94.8 368.6,93.7 369.3,93.7 369.3,92.9 370.0,92.9 370.0,92.6 370.7,92.6 370.7,92.4 371.3,92.4 371.3,92.4 382.3,92.4 382.3,90.5 383.7,90.5 383.7,90.4 385.1,90.4 385.1,90.4 392.6,90.4 392.6,90.3 394.0,90.3 394.0,90.3 840.4,90.3 840.4,90.2 857.6,90.2 857.6,90.1 859.6,90.1 859.6,90.1 860.3,90.1 860.3,90.0 870.6,90.0 870.6,90.0 872.0,90.0 872.0,272.0" fill="#e0f2fe" opacity="0.55"/>
<polyline points="52.0,272.0 52.7,272.0 52.7,271.9 60.9,271.9 60.9,271.5 61.6,271.5 61.6,271.4 62.3,271.4 62.3,271.4 64.4,271.4 64.4,271.3 68.5,271.3 68.5,271.3 77.4,271.3 77.4,271.2 78.1,271.2 78.1,270.9 78.8,270.9 78.8,270.9 80.8,270.9 80.8,270.8 81.5,270.8 81.5,270.7 82.2,270.7 82.2,270.7 82.9,270.7 82.9,270.6 84.3,270.6 84.3,270.5 85.0,270.5 85.0,270.4 87.0,270.4 87.0,270.2 89.8,270.2 89.8,270.1 90.5,270.1 90.5,270.0 91.1,270.0 91.1,269.9 96.6,269.9 96.6,269.9 98.0,269.9 98.0,269.9 101.4,269.9 101.4,269.8 102.1,269.8 102.1,269.8 102.8,269.8 102.8,269.7 105.6,269.7 105.6,269.7 106.3,269.7 106.3,269.4 106.9,269.4 106.9,269.3 107.6,269.3 107.6,268.8 108.3,268.8 108.3,268.7 113.1,268.7 113.1,268.6 115.2,268.6 115.2,268.6 116.6,268.6 116.6,268.6 117.2,268.6 117.2,268.5 117.9,268.5 117.9,268.3 118.6,268.3 118.6,268.3 119.3,268.3 119.3,268.3 120.0,268.3 120.0,268.1 120.7,268.1 120.7,268.0 123.4,268.0 123.4,267.8 124.8,267.8 124.8,267.8 127.5,267.8 127.5,267.8 128.2,267.8 128.2,267.6 128.9,267.6 128.9,267.5 129.6,267.5 129.6,267.5 131.0,267.5 131.0,267.4 131.7,267.4 131.7,266.7 132.4,266.7 132.4,265.9 133.0,265.9 133.0,265.6 133.7,265.6 133.7,265.4 134.4,265.4 134.4,265.4 135.1,265.4 135.1,265.2 135.8,265.2 135.8,264.9 136.5,264.9 136.5,264.7 137.2,264.7 137.2,264.6 137.8,264.6 137.8,264.5 139.2,264.5 139.2,264.4 139.9,264.4 139.9,264.1 140.6,264.1 140.6,263.8 141.3,263.8 141.3,263.5 142.0,263.5 142.0,263.3 143.3,263.3 143.3,263.2 144.7,263.2 144.7,263.2 145.4,263.2 145.4,262.9 146.1,262.9 146.1,262.7 146.8,262.7 146.8,262.2 147.5,262.2 147.5,261.9 148.1,261.9 148.1,261.6 148.8,261.6 148.8,261.3 149.5,261.3 149.5,260.9 150.2,260.9 150.2,260.6 150.9,260.6 150.9,260.2 151.6,260.2 151.6,259.8 152.3,259.8 152.3,259.4 153.0,259.4 153.0,259.1 153.6,259.1 153.6,258.8 154.3,258.8 154.3,258.6 155.0,258.6 155.0,258.3 155.7,258.3 155.7,258.1 156.4,258.1 156.4,257.9 157.1,257.9 157.1,257.7 157.8,257.7 157.8,257.7 158.4,257.7 158.4,257.6 159.8,257.6 159.8,257.5 160.5,257.5 160.5,256.8 161.2,256.8 161.2,256.2 161.9,256.2 161.9,256.1 162.6,256.1 162.6,256.1 163.9,256.1 163.9,256.0 164.6,256.0 164.6,255.9 167.4,255.9 167.4,255.9 168.8,255.9 168.8,255.8 170.8,255.8 170.8,255.7 171.5,255.7 171.5,254.9 172.2,254.9 172.2,254.0 172.9,254.0 172.9,253.8 173.6,253.8 173.6,253.1 174.2,253.1 174.2,252.6 174.9,252.6 174.9,252.2 175.6,252.2 175.6,252.0 176.3,252.0 176.3,251.7 177.0,251.7 177.0,251.5 177.7,251.5 177.7,251.5 178.4,251.5 178.4,251.3 179.1,251.3 179.1,251.2 183.2,251.2 183.2,250.6 183.9,250.6 183.9,249.9 184.5,249.9 184.5,249.8 185.2,249.8 185.2,249.6 185.9,249.6 185.9,249.6 190.7,249.6 190.7,249.6 196.9,249.6 196.9,248.8 197.6,248.8 197.6,248.1 198.3,248.1 198.3,247.4 199.0,247.4 199.0,246.4 199.7,246.4 199.7,246.2 200.3,246.2 200.3,245.8 201.0,245.8 201.0,245.2 201.7,245.2 201.7,244.8 202.4,244.8 202.4,243.7 203.1,243.7 203.1,242.2 203.8,242.2 203.8,240.7 204.5,240.7 204.5,239.0 205.1,239.0 205.1,237.1 205.8,237.1 205.8,235.5 206.5,235.5 206.5,234.5 207.2,234.5 207.2,233.3 207.9,233.3 207.9,231.6 208.6,231.6 208.6,230.1 209.3,230.1 209.3,229.1 210.0,229.1 210.0,228.1 210.6,228.1 210.6,226.6 211.3,226.6 211.3,225.7 212.0,225.7 212.0,224.8 212.7,224.8 212.7,224.0 213.4,224.0 213.4,223.4 214.1,223.4 214.1,222.6 214.8,222.6 214.8,222.1 215.5,222.1 215.5,221.5 216.1,221.5 216.1,221.1 216.8,221.1 216.8,219.7 217.5,219.7 217.5,218.6 218.2,218.6 218.2,218.0 218.9,218.0 218.9,217.8 219.6,217.8 219.6,217.5 220.3,217.5 220.3,216.9 220.9,216.9 220.9,216.4 221.6,216.4 221.6,215.5 222.3,215.5 222.3,214.9 223.0,214.9 223.0,214.4 223.7,214.4 223.7,214.3 224.4,214.3 224.4,214.1 225.1,214.1 225.1,213.6 225.8,213.6 225.8,212.5 226.4,212.5 226.4,210.7 227.1,210.7 227.1,208.9 227.8,208.9 227.8,207.0 228.5,207.0 228.5,205.5 229.2,205.5 229.2,203.7 229.9,203.7 229.9,201.8 230.6,201.8 230.6,199.8 231.2,199.8 231.2,198.0 231.9,198.0 231.9,196.7 232.6,196.7 232.6,195.7 233.3,195.7 233.3,194.5 234.0,194.5 234.0,193.4 234.7,193.4 234.7,192.6 235.4,192.6 235.4,191.7 236.1,191.7 236.1,191.0 236.7,191.0 236.7,190.0 237.4,190.0 237.4,188.7 238.1,188.7 238.1,187.1 238.8,187.1 238.8,185.8 239.5,185.8 239.5,184.6 240.2,184.6 240.2,183.8 240.9,183.8 240.9,183.1 241.5,183.1 241.5,182.4 242.2,182.4 242.2,181.7 242.9,181.7 242.9,180.4 243.6,180.4 243.6,179.3 244.3,179.3 244.3,177.9 245.0,177.9 245.0,176.6 245.7,176.6 245.7,175.4 246.4,175.4 246.4,174.5 247.0,174.5 247.0,174.1 247.7,174.1 247.7,173.6 248.4,173.6 248.4,173.0 249.1,173.0 249.1,173.0 249.8,173.0 249.8,172.9 250.5,172.9 250.5,172.6 251.2,172.6 251.2,172.5 251.8,172.5 251.8,172.5 252.5,172.5 252.5,172.3 253.2,172.3 253.2,172.2 255.3,172.2 255.3,172.2 256.0,172.2 256.0,172.1 256.7,172.1 256.7,171.9 257.3,171.9 257.3,170.3 258.0,170.3 258.0,169.0 258.7,169.0 258.7,167.8 259.4,167.8 259.4,166.5 260.1,166.5 260.1,165.3 260.8,165.3 260.8,164.1 261.5,164.1 261.5,162.9 262.2,162.9 262.2,161.7 262.8,161.7 262.8,160.4 263.5,160.4 263.5,159.3 264.2,159.3 264.2,158.1 264.9,158.1 264.9,157.0 265.6,157.0 265.6,155.9 266.3,155.9 266.3,154.7 267.0,154.7 267.0,153.6 267.6,153.6 267.6,152.7 268.3,152.7 268.3,151.6 269.0,151.6 269.0,150.5 269.7,150.5 269.7,149.5 270.4,149.5 270.4,148.5 271.1,148.5 271.1,147.4 271.8,147.4 271.8,146.7 272.5,146.7 272.5,146.1 273.1,146.1 273.1,145.4 273.8,145.4 273.8,144.4 274.5,144.4 274.5,143.5 275.2,143.5 275.2,142.7 275.9,142.7 275.9,141.6 276.6,141.6 276.6,140.8 277.3,140.8 277.3,140.0 277.9,140.0 277.9,139.0 278.6,139.0 278.6,138.1 279.3,138.1 279.3,137.2 280.0,137.2 280.0,136.4 280.7,136.4 280.7,135.4 281.4,135.4 281.4,134.7 282.1,134.7 282.1,133.7 282.8,133.7 282.8,133.0 283.4,133.0 283.4,132.3 284.1,132.3 284.1,131.4 284.8,131.4 284.8,130.6 285.5,130.6 285.5,129.9 286.2,129.9 286.2,129.3 286.9,129.3 286.9,128.7 287.6,128.7 287.6,128.4 288.2,128.4 288.2,128.2 288.9,128.2 288.9,127.4 289.6,127.4 289.6,126.7 290.3,126.7 290.3,125.9 291.0,125.9 291.0,125.1 291.7,125.1 291.7,124.5 292.4,124.5 292.4,123.7 293.1,123.7 293.1,123.0 293.7,123.0 293.7,122.3 294.4,122.3 294.4,121.6 295.1,121.6 295.1,121.0 295.8,121.0 295.8,120.3 296.5,120.3 296.5,119.7 297.2,119.7 297.2,118.9 297.9,118.9 297.9,118.3 298.5,118.3 298.5,117.6 299.2,117.6 299.2,116.9 299.9,116.9 299.9,116.3 300.6,116.3 300.6,115.7 301.3,115.7 301.3,114.9 302.0,114.9 302.0,114.4 302.7,114.4 302.7,113.9 303.4,113.9 303.4,113.1 304.0,113.1 304.0,112.3 304.7,112.3 304.7,111.7 305.4,111.7 305.4,111.0 306.1,111.0 306.1,110.3 306.8,110.3 306.8,109.7 307.5,109.7 307.5,109.1 308.2,109.1 308.2,108.4 308.9,108.4 308.9,107.9 309.5,107.9 309.5,107.6 310.2,107.6 310.2,106.9 310.9,106.9 310.9,106.3 311.6,106.3 311.6,105.6 312.3,105.6 312.3,104.9 313.0,104.9 313.0,104.3 313.7,104.3 313.7,103.7 314.3,103.7 314.3,103.1 315.0,103.1 315.0,102.5 315.7,102.5 315.7,101.8 316.4,101.8 316.4,101.2 317.1,101.2 317.1,100.6 317.8,100.6 317.8,100.0 318.5,100.0 318.5,99.3 319.2,99.3 319.2,99.0 319.8,99.0 319.8,98.3 320.5,98.3 320.5,97.7 321.2,97.7 321.2,97.4 321.9,97.4 321.9,96.8 322.6,96.8 322.6,96.0 366.5,96.0 366.5,94.8 368.6,94.8 368.6,93.7 369.3,93.7 369.3,92.9 370.0,92.9 370.0,92.6 370.7,92.6 370.7,92.4 371.3,92.4 371.3,92.4 382.3,92.4 382.3,90.5 383.7,90.5 383.7,90.4 385.1,90.4 385.1,90.4 392.6,90.4 392.6,90.3 394.0,90.3 394.0,90.3 840.4,90.3 840.4,90.2 857.6,90.2 857.6,90.1 859.6,90.1 859.6,90.1 860.3,90.1 860.3,90.0 870.6,90.0 870.6,90.0" fill="none" stroke="#38bdf8" stroke-width="2.5" stroke-linejoin="round" stroke-linecap="round"/>
<polyline points="870.6,90.0 872.0,90.0" fill="none" stroke="#94a3b8" stroke-width="1.5" stroke-dasharray="4 4" stroke-linecap="round"/>
<circle cx="870.6" cy="90.0" r="4" fill="#0ea5e9"/>
<text x="864.6" y="80.0" text-anchor="end" font-family="Inter, system-ui, sans-serif" font-size="13" font-weight="700" fill="#334155">4769</text>
<text x="52.0" y="294" text-anchor="middle" font-family="Inter, system-ui, sans-serif" font-size="11" fill="#94a3b8">Jun 10 05:00</text>
<text x="226.4" y="294" text-anchor="middle" font-family="Inter, system-ui, sans-serif" font-size="11" fill="#94a3b8">Jun 20 19:00</text>
<text x="870.6" y="294" text-anchor="middle" font-family="Inter, system-ui, sans-serif" font-size="11" fill="#94a3b8">Jul 29 21:00</text>
<text x="872.0" y="294" text-anchor="end" font-family="Inter, system-ui, sans-serif" font-size="11" fill="#94a3b8">Jul 29 23:00</text>
</svg>
