<svg xmlns="http://www.w3.org/2000/svg" width="900" height="320" viewBox="0 0 900 320" role="img" aria-labelledby="title desc">
<title id="title">unsorry proofs over time</title>
<desc id="desc">Cumulative kernel-verified proofs over time, by the hour each proof was merged.</desc>
<rect width="900" height="100%" rx="18" fill="#ffffff"/>
<rect x="0.5" y="0.5" width="899" height="319" rx="18" fill="none" stroke="#e2e8f0"/>
<text x="32" y="44" font-family="Inter, system-ui, sans-serif" font-size="28" font-weight="700" fill="#334155">unsorry — Proofs Over Time</text>
<text x="32" y="72" font-family="Inter, system-ui, sans-serif" font-size="13" fill="#64748b">4769 cumulative kernel-verified proofs · merged, hourly · last proof Jul 29 21:00 UTC</text>
<line x1="52" y1="272.0" x2="872" y2="272.0" stroke="#f1f5f9"/>
<text x="44" y="276.0" text-anchor="end" font-family="Inter, system-ui, sans-serif" font-size="11" fill="#94a3b8">0</text>
<line x1="52" y1="226.5" x2="872" y2="226.5" stroke="#f1f5f9"/>
<text x="44" y="230.5" text-anchor="end" font-family="Inter, system-ui, sans-serif" font-size="11" fill="#94a3b8">1192</text>
<line x1="52" y1="181.0" x2="872" y2="181.0" stroke="#f1f5f9"/>
<text x="44" y="185.0" text-anchor="end" font-family="Inter, system-ui, sans-serif" font-size="11" fill="#94a3b8">2384</text>
<line x1="52" y1="135.5" x2="872" y2="135.5" stroke="#f1f5f9"/>
<text x="44" y="139.5" text-anchor="end" font-family="Inter, system-ui, sans-serif" font-size="11" fill="#94a3b8">3577</text>
<line x1="52" y1="90.0" x2="872" y2="90.0" stroke="#f1f5f9"/>
<text x="44" y="94.0" text-anchor="end" font-family="Inter, system-ui, sans-serif" font-size="11" fill="#94a3b8">4769</text>
<polygon points="52.0,272.0 52.0,272.0 52.7,272.0 52.7,271.9 60.9,271.9 60.9,271.5 61.6,271.5 61.6,271.4 62.2,271.4 62.2,271.4 64.3,271.4 64.3,271.3 68.4,271.3 68.4,271.3 77.3,271.3 77.3,271.2 77.9,271.2 77.9,270.9 78.6,270.9 78.6,270.9 80.7,270.9 80.7,270.8 81.4,270.8 81.4,270.7 82.0,270.7 82.0,270.7 82.7,270.7 82.7,270.6 84.1,270.6 84.1,270.5 84.8,270.5 84.8,270.4 86.8,270.4 86.8,270.2 89.6,270.2 89.6,270.1 90.2,270.1 90.2,270.0 90.9,270.0 90.9,269.9 96.4,269.9 96.4,269.9 97.7,269.9 97.7,269.9 101.2,269.9 101.2,269.8 101.8,269.8 101.8,269.8 102.5,269.8 102.5,269.7 105.3,269.7 105.3,269.7 105.9,269.7 105.9,269.4 106.6,269.4 106.6,269.3 107.3,269.3 107.3,268.8 108.0,268.8 108.0,268.7 112.8,268.7 112.8,268.6 114.8,268.6 114.8,268.6 116.2,268.6 116.2,268.6 116.9,268.6 116.9,268.5 117.5,268.5 117.5,268.3 118.2,268.3 118.2,268.3 118.9,268.3 118.9,268.3 119.6,268.3 119.6,268.1 120.3,268.1 120.3,268.0 123.0,268.0 123.0,267.8 124.4,267.8 124.4,267.8 127.1,267.8 127.1,267.8 127.8,267.8 127.8,267.6 128.5,267.6 128.5,267.5 129.2,267.5 129.2,267.5 130.5,267.5 130.5,267.4 131.2,267.4 131.2,266.7 131.9,266.7 131.9,265.9 132.6,265.9 132.6,265.6 133.2,265.6 133.2,265.4 133.9,265.4 133.9,265.4 134.6,265.4 134.6,265.2 135.3,265.2 135.3,264.9 136.0,264.9 136.0,264.7 136.7,264.7 136.7,264.6 137.3,264.6 137.3,264.5 138.7,264.5 138.7,264.4 139.4,264.4 139.4,264.1 140.1,264.1 140.1,263.8 140.8,263.8 140.8,263.5 141.4,263.5 141.4,263.3 142.8,263.3 142.8,263.2 144.2,263.2 144.2,263.2 144.9,263.2 144.9,262.9 145.5,262.9 145.5,262.7 146.2,262.7 146.2,262.2 146.9,262.2 146.9,261.9 147.6,261.9 147.6,261.6 148.3,261.6 148.3,261.3 149.0,261.3 149.0,260.9 149.6,260.9 149.6,260.6 150.3,260.6 150.3,260.2 151.0,260.2 151.0,259.8 151.7,259.8 151.7,259.4 152.4,259.4 152.4,259.1 153.0,259.1 153.0,258.8 153.7,258.8 153.7,258.6 154.4,258.6 154.4,258.3 155.1,258.3 155.1,258.1 155.8,258.1 155.8,257.9 156.5,257.9 156.5,257.7 157.1,257.7 157.1,257.7 157.8,257.7 157.8,257.6 159.2,257.6 159.2,257.5 159.9,257.5 159.9,256.8 160.6,256.8 160.6,256.2 161.2,256.2 161.2,256.1 161.9,256.1 161.9,256.1 163.3,256.1 163.3,256.0 164.0,256.0 164.0,255.9 166.7,255.9 166.7,255.9 168.1,255.9 168.1,255.8 170.1,255.8 170.1,255.7 170.8,255.7 170.8,254.9 171.5,254.9 171.5,254.0 172.2,254.0 172.2,253.8 172.8,253.8 172.8,253.1 173.5,253.1 173.5,252.6 174.2,252.6 174.2,252.2 174.9,252.2 174.9,252.0 175.6,252.0 175.6,251.7 176.3,251.7 176.3,251.5 176.9,251.5 176.9,251.5 177.6,251.5 177.6,251.3 178.3,251.3 178.3,251.2 182.4,251.2 182.4,250.6 183.1,250.6 183.1,249.9 183.8,249.9 183.8,249.8 184.5,249.8 184.5,249.6 185.1,249.6 185.1,249.6 189.9,249.6 189.9,249.6 196.1,249.6 196.1,248.8 196.7,248.8 196.7,248.1 197.4,248.1 197.4,247.4 198.1,247.4 198.1,246.4 198.8,246.4 198.8,246.2 199.5,246.2 199.5,245.8 200.2,245.8 200.2,245.2 200.8,245.2 200.8,244.8 201.5,244.8 201.5,243.7 202.2,243.7 202.2,242.2 202.9,242.2 202.9,240.7 203.6,240.7 203.6,239.0 204.3,239.0 204.3,237.1 204.9,237.1 204.9,235.5 205.6,235.5 205.6,234.5 206.3,234.5 206.3,233.3 207.0,233.3 207.0,231.6 207.7,231.6 207.7,230.1 208.4,230.1 208.4,229.1 209.0,229.1 209.0,228.1 209.7,228.1 209.7,226.6 210.4,226.6 210.4,225.7 211.1,225.7 211.1,224.8 211.8,224.8 211.8,224.0 212.4,224.0 212.4,223.4 213.1,223.4 213.1,222.6 213.8,222.6 213.8,222.1 214.5,222.1 214.5,221.5 215.2,221.5 215.2,221.1 215.9,221.1 215.9,219.7 216.5,219.7 216.5,218.6 217.2,218.6 217.2,218.0 217.9,218.0 217.9,217.8 218.6,217.8 218.6,217.5 219.3,217.5 219.3,216.9 220.0,216.9 220.0,216.4 220.6,216.4 220.6,215.5 221.3,215.5 221.3,214.9 222.0,214.9 222.0,214.4 222.7,214.4 222.7,214.3 223.4,214.3 223.4,214.1 224.1,214.1 224.1,213.6 224.7,213.6 224.7,212.5 225.4,212.5 225.4,210.7 226.1,210.7 226.1,208.9 226.8,208.9 226.8,207.0 227.5,207.0 227.5,205.5 228.2,205.5 228.2,203.7 228.8,203.7 228.8,201.8 229.5,201.8 229.5,199.8 230.2,199.8 230.2,198.0 230.9,198.0 230.9,196.7 231.6,196.7 231.6,195.7 232.2,195.7 232.2,194.5 232.9,194.5 232.9,193.4 233.6,193.4 233.6,192.6 234.3,192.6 234.3,191.7 235.0,191.7 235.0,191.0 235.7,191.0 235.7,190.0 236.3,190.0 236.3,188.7 237.0,188.7 237.0,187.1 237.7,187.1 237.7,185.8 238.4,185.8 238.4,184.6 239.1,184.6 239.1,183.8 239.8,183.8 239.8,183.1 240.4,183.1 240.4,182.4 241.1,182.4 241.1,181.7 241.8,181.7 241.8,180.4 242.5,180.4 242.5,179.3 243.2,179.3 243.2,177.9 243.9,177.9 243.9,176.6 244.5,176.6 244.5,175.4 245.2,175.4 245.2,174.5 245.9,174.5 245.9,174.1 246.6,174.1 246.6,173.6 247.3,173.6 247.3,173.0 248.0,173.0 248.0,173.0 248.6,173.0 248.6,172.9 249.3,172.9 249.3,172.6 250.0,172.6 250.0,172.5 250.7,172.5 250.7,172.5 251.4,172.5 251.4,172.3 252.0,172.3 252.0,172.2 254.1,172.2 254.1,172.2 254.8,172.2 254.8,172.1 255.5,172.1 255.5,171.9 256.1,171.9 256.1,170.3 256.8,170.3 256.8,169.0 257.5,169.0 257.5,167.8 258.2,167.8 258.2,166.5 258.9,166.5 258.9,165.3 259.6,165.3 259.6,164.1 260.2,164.1 260.2,162.9 260.9,162.9 260.9,161.7 261.6,161.7 261.6,160.4 262.3,160.4 262.3,159.3 263.0,159.3 263.0,158.1 263.7,158.1 263.7,157.0 264.3,157.0 264.3,155.9 265.0,155.9 265.0,154.7 265.7,154.7 265.7,153.6 266.4,153.6 266.4,152.7 267.1,152.7 267.1,151.6 267.8,151.6 267.8,150.5 268.4,150.5 268.4,149.5 269.1,149.5 269.1,148.5 269.8,148.5 269.8,147.4 270.5,147.4 270.5,146.7 271.2,146.7 271.2,146.1 271.9,146.1 271.9,145.4 272.5,145.4 272.5,144.4 273.2,144.4 273.2,143.5 273.9,143.5 273.9,142.7 274.6,142.7 274.6,141.6 275.3,141.6 275.3,140.8 275.9,140.8 275.9,140.0 276.6,140.0 276.6,139.0 277.3,139.0 277.3,138.1 278.0,138.1 278.0,137.2 278.7,137.2 278.7,136.4 279.4,136.4 279.4,135.4 280.0,135.4 280.0,134.7 280.7,134.7 280.7,133.7 281.4,133.7 281.4,133.0 282.1,133.0 282.1,132.3 282.8,132.3 282.8,131.4 283.5,131.4 283.5,130.6 284.1,130.6 284.1,129.9 284.8,129.9 284.8,129.3 285.5,129.3 285.5,128.7 286.2,128.7 286.2,128.4 286.9,128.4 286.9,128.2 287.6,128.2 287.6,127.4 288.2,127.4 288.2,126.7 288.9,126.7 288.9,125.9 289.6,125.9 289.6,125.1 290.3,125.1 290.3,124.5 291.0,124.5 291.0,123.7 291.7,123.7 291.7,123.0 292.3,123.0 292.3,122.3 293.0,122.3 293.0,121.6 293.7,121.6 293.7,121.0 294.4,121.0 294.4,120.3 295.1,120.3 295.1,119.7 295.7,119.7 295.7,118.9 296.4,118.9 296.4,118.3 297.1,118.3 297.1,117.6 297.8,117.6 297.8,116.9 298.5,116.9 298.5,116.3 299.2,116.3 299.2,115.7 299.8,115.7 299.8,114.9 300.5,114.9 300.5,114.4 301.2,114.4 301.2,113.9 301.9,113.9 301.9,113.1 302.6,113.1 302.6,112.3 303.3,112.3 303.3,111.7 303.9,111.7 303.9,111.0 304.6,111.0 304.6,110.3 305.3,110.3 305.3,109.7 306.0,109.7 306.0,109.1 306.7,109.1 306.7,108.4 307.4,108.4 307.4,107.9 308.0,107.9 308.0,107.6 308.7,107.6 308.7,106.9 309.4,106.9 309.4,106.3 310.1,106.3 310.1,105.6 310.8,105.6 310.8,104.9 311.5,104.9 311.5,104.3 312.1,104.3 312.1,103.7 312.8,103.7 312.8,103.1 313.5,103.1 313.5,102.5 314.2,102.5 314.2,101.8 314.9,101.8 314.9,101.2 315.5,101.2 315.5,100.6 316.2,100.6 316.2,100.0 316.9,100.0 316.9,99.3 317.6,99.3 317.6,99.0 318.3,99.0 318.3,98.3 319.0,98.3 319.0,97.7 319.6,97.7 319.6,97.4 320.3,97.4 320.3,96.8 321.0,96.8 321.0,96.0 364.7,96.0 364.7,94.8 366.8,94.8 366.8,93.7 367.4,93.7 367.4,92.9 368.1,92.9 368.1,92.6 368.8,92.6 368.8,92.4 369.5,92.4 369.5,92.4 380.4,92.4 380.4,90.5 381.8,90.5 381.8,90.4 383.1,90.4 383.1,90.4 390.7,90.4 390.7,90.3 392.0,90.3 392.0,90.3 835.8,90.3 835.8,90.2 852.9,90.2 852.9,90.1 854.9,90.1 854.9,90.1 855.6,90.1 855.6,90.0 865.9,90.0 865.9,90.0 872.0,90.0 872.0,272.0" fill="#e0f2fe" opacity="0.55"/>
<polyline points="52.0,272.0 52.7,272.0 52.7,271.9 60.9,271.9 60.9,271.5 61.6,271.5 61.6,271.4 62.2,271.4 62.2,271.4 64.3,271.4 64.3,271.3 68.4,271.3 68.4,271.3 77.3,271.3 77.3,271.2 77.9,271.2 77.9,270.9 78.6,270.9 78.6,270.9 80.7,270.9 80.7,270.8 81.4,270.8 81.4,270.7 82.0,270.7 82.0,270.7 82.7,270.7 82.7,270.6 84.1,270.6 84.1,270.5 84.8,270.5 84.8,270.4 86.8,270.4 86.8,270.2 89.6,270.2 89.6,270.1 90.2,270.1 90.2,270.0 90.9,270.0 90.9,269.9 96.4,269.9 96.4,269.9 97.7,269.9 97.7,269.9 101.2,269.9 101.2,269.8 101.8,269.8 101.8,269.8 102.5,269.8 102.5,269.7 105.3,269.7 105.3,269.7 105.9,269.7 105.9,269.4 106.6,269.4 106.6,269.3 107.3,269.3 107.3,268.8 108.0,268.8 108.0,268.7 112.8,268.7 112.8,268.6 114.8,268.6 114.8,268.6 116.2,268.6 116.2,268.6 116.9,268.6 116.9,268.5 117.5,268.5 117.5,268.3 118.2,268.3 118.2,268.3 118.9,268.3 118.9,268.3 119.6,268.3 119.6,268.1 120.3,268.1 120.3,268.0 123.0,268.0 123.0,267.8 124.4,267.8 124.4,267.8 127.1,267.8 127.1,267.8 127.8,267.8 127.8,267.6 128.5,267.6 128.5,267.5 129.2,267.5 129.2,267.5 130.5,267.5 130.5,267.4 131.2,267.4 131.2,266.7 131.9,266.7 131.9,265.9 132.6,265.9 132.6,265.6 133.2,265.6 133.2,265.4 133.9,265.4 133.9,265.4 134.6,265.4 134.6,265.2 135.3,265.2 135.3,264.9 136.0,264.9 136.0,264.7 136.7,264.7 136.7,264.6 137.3,264.6 137.3,264.5 138.7,264.5 138.7,264.4 139.4,264.4 139.4,264.1 140.1,264.1 140.1,263.8 140.8,263.8 140.8,263.5 141.4,263.5 141.4,263.3 142.8,263.3 142.8,263.2 144.2,263.2 144.2,263.2 144.9,263.2 144.9,262.9 145.5,262.9 145.5,262.7 146.2,262.7 146.2,262.2 146.9,262.2 146.9,261.9 147.6,261.9 147.6,261.6 148.3,261.6 148.3,261.3 149.0,261.3 149.0,260.9 149.6,260.9 149.6,260.6 150.3,260.6 150.3,260.2 151.0,260.2 151.0,259.8 151.7,259.8 151.7,259.4 152.4,259.4 152.4,259.1 153.0,259.1 153.0,258.8 153.7,258.8 153.7,258.6 154.4,258.6 154.4,258.3 155.1,258.3 155.1,258.1 155.8,258.1 155.8,257.9 156.5,257.9 156.5,257.7 157.1,257.7 157.1,257.7 157.8,257.7 157.8,257.6 159.2,257.6 159.2,257.5 159.9,257.5 159.9,256.8 160.6,256.8 160.6,256.2 161.2,256.2 161.2,256.1 161.9,256.1 161.9,256.1 163.3,256.1 163.3,256.0 164.0,256.0 164.0,255.9 166.7,255.9 166.7,255.9 168.1,255.9 168.1,255.8 170.1,255.8 170.1,255.7 170.8,255.7 170.8,254.9 171.5,254.9 171.5,254.0 172.2,254.0 172.2,253.8 172.8,253.8 172.8,253.1 173.5,253.1 173.5,252.6 174.2,252.6 174.2,252.2 174.9,252.2 174.9,252.0 175.6,252.0 175.6,251.7 176.3,251.7 176.3,251.5 176.9,251.5 176.9,251.5 177.6,251.5 177.6,251.3 178.3,251.3 178.3,251.2 182.4,251.2 182.4,250.6 183.1,250.6 183.1,249.9 183.8,249.9 183.8,249.8 184.5,249.8 184.5,249.6 185.1,249.6 185.1,249.6 189.9,249.6 189.9,249.6 196.1,249.6 196.1,248.8 196.7,248.8 196.7,248.1 197.4,248.1 197.4,247.4 198.1,247.4 198.1,246.4 198.8,246.4 198.8,246.2 199.5,246.2 199.5,245.8 200.2,245.8 200.2,245.2 200.8,245.2 200.8,244.8 201.5,244.8 201.5,243.7 202.2,243.7 202.2,242.2 202.9,242.2 202.9,240.7 203.6,240.7 203.6,239.0 204.3,239.0 204.3,237.1 204.9,237.1 204.9,235.5 205.6,235.5 205.6,234.5 206.3,234.5 206.3,233.3 207.0,233.3 207.0,231.6 207.7,231.6 207.7,230.1 208.4,230.1 208.4,229.1 209.0,229.1 209.0,228.1 209.7,228.1 209.7,226.6 210.4,226.6 210.4,225.7 211.1,225.7 211.1,224.8 211.8,224.8 211.8,224.0 212.4,224.0 212.4,223.4 213.1,223.4 213.1,222.6 213.8,222.6 213.8,222.1 214.5,222.1 214.5,221.5 215.2,221.5 215.2,221.1 215.9,221.1 215.9,219.7 216.5,219.7 216.5,218.6 217.2,218.6 217.2,218.0 217.9,218.0 217.9,217.8 218.6,217.8 218.6,217.5 219.3,217.5 219.3,216.9 220.0,216.9 220.0,216.4 220.6,216.4 220.6,215.5 221.3,215.5 221.3,214.9 222.0,214.9 222.0,214.4 222.7,214.4 222.7,214.3 223.4,214.3 223.4,214.1 224.1,214.1 224.1,213.6 224.7,213.6 224.7,212.5 225.4,212.5 225.4,210.7 226.1,210.7 226.1,208.9 226.8,208.9 226.8,207.0 227.5,207.0 227.5,205.5 228.2,205.5 228.2,203.7 228.8,203.7 228.8,201.8 229.5,201.8 229.5,199.8 230.2,199.8 230.2,198.0 230.9,198.0 230.9,196.7 231.6,196.7 231.6,195.7 232.2,195.7 232.2,194.5 232.9,194.5 232.9,193.4 233.6,193.4 233.6,192.6 234.3,192.6 234.3,191.7 235.0,191.7 235.0,191.0 235.7,191.0 235.7,190.0 236.3,190.0 236.3,188.7 237.0,188.7 237.0,187.1 237.7,187.1 237.7,185.8 238.4,185.8 238.4,184.6 239.1,184.6 239.1,183.8 239.8,183.8 239.8,183.1 240.4,183.1 240.4,182.4 241.1,182.4 241.1,181.7 241.8,181.7 241.8,180.4 242.5,180.4 242.5,179.3 243.2,179.3 243.2,177.9 243.9,177.9 243.9,176.6 244.5,176.6 244.5,175.4 245.2,175.4 245.2,174.5 245.9,174.5 245.9,174.1 246.6,174.1 246.6,173.6 247.3,173.6 247.3,173.0 248.0,173.0 248.0,173.0 248.6,173.0 248.6,172.9 249.3,172.9 249.3,172.6 250.0,172.6 250.0,172.5 250.7,172.5 250.7,172.5 251.4,172.5 251.4,172.3 252.0,172.3 252.0,172.2 254.1,172.2 254.1,172.2 254.8,172.2 254.8,172.1 255.5,172.1 255.5,171.9 256.1,171.9 256.1,170.3 256.8,170.3 256.8,169.0 257.5,169.0 257.5,167.8 258.2,167.8 258.2,166.5 258.9,166.5 258.9,165.3 259.6,165.3 259.6,164.1 260.2,164.1 260.2,162.9 260.9,162.9 260.9,161.7 261.6,161.7 261.6,160.4 262.3,160.4 262.3,159.3 263.0,159.3 263.0,158.1 263.7,158.1 263.7,157.0 264.3,157.0 264.3,155.9 265.0,155.9 265.0,154.7 265.7,154.7 265.7,153.6 266.4,153.6 266.4,152.7 267.1,152.7 267.1,151.6 267.8,151.6 267.8,150.5 268.4,150.5 268.4,149.5 269.1,149.5 269.1,148.5 269.8,148.5 269.8,147.4 270.5,147.4 270.5,146.7 271.2,146.7 271.2,146.1 271.9,146.1 271.9,145.4 272.5,145.4 272.5,144.4 273.2,144.4 273.2,143.5 273.9,143.5 273.9,142.7 274.6,142.7 274.6,141.6 275.3,141.6 275.3,140.8 275.9,140.8 275.9,140.0 276.6,140.0 276.6,139.0 277.3,139.0 277.3,138.1 278.0,138.1 278.0,137.2 278.7,137.2 278.7,136.4 279.4,136.4 279.4,135.4 280.0,135.4 280.0,134.7 280.7,134.7 280.7,133.7 281.4,133.7 281.4,133.0 282.1,133.0 282.1,132.3 282.8,132.3 282.8,131.4 283.5,131.4 283.5,130.6 284.1,130.6 284.1,129.9 284.8,129.9 284.8,129.3 285.5,129.3 285.5,128.7 286.2,128.7 286.2,128.4 286.9,128.4 286.9,128.2 287.6,128.2 287.6,127.4 288.2,127.4 288.2,126.7 288.9,126.7 288.9,125.9 289.6,125.9 289.6,125.1 290.3,125.1 290.3,124.5 291.0,124.5 291.0,123.7 291.7,123.7 291.7,123.0 292.3,123.0 292.3,122.3 293.0,122.3 293.0,121.6 293.7,121.6 293.7,121.0 294.4,121.0 294.4,120.3 295.1,120.3 295.1,119.7 295.7,119.7 295.7,118.9 296.4,118.9 296.4,118.3 297.1,118.3 297.1,117.6 297.8,117.6 297.8,116.9 298.5,116.9 298.5,116.3 299.2,116.3 299.2,115.7 299.8,115.7 299.8,114.9 300.5,114.9 300.5,114.4 301.2,114.4 301.2,113.9 301.9,113.9 301.9,113.1 302.6,113.1 302.6,112.3 303.3,112.3 303.3,111.7 303.9,111.7 303.9,111.0 304.6,111.0 304.6,110.3 305.3,110.3 305.3,109.7 306.0,109.7 306.0,109.1 306.7,109.1 306.7,108.4 307.4,108.4 307.4,107.9 308.0,107.9 308.0,107.6 308.7,107.6 308.7,106.9 309.4,106.9 309.4,106.3 310.1,106.3 310.1,105.6 310.8,105.6 310.8,104.9 311.5,104.9 311.5,104.3 312.1,104.3 312.1,103.7 312.8,103.7 312.8,103.1 313.5,103.1 313.5,102.5 314.2,102.5 314.2,101.8 314.9,101.8 314.9,101.2 315.5,101.2 315.5,100.6 316.2,100.6 316.2,100.0 316.9,100.0 316.9,99.3 317.6,99.3 317.6,99.0 318.3,99.0 318.3,98.3 319.0,98.3 319.0,97.7 319.6,97.7 319.6,97.4 320.3,97.4 320.3,96.8 321.0,96.8 321.0,96.0 364.7,96.0 364.7,94.8 366.8,94.8 366.8,93.7 367.4,93.7 367.4,92.9 368.1,92.9 368.1,92.6 368.8,92.6 368.8,92.4 369.5,92.4 369.5,92.4 380.4,92.4 380.4,90.5 381.8,90.5 381.8,90.4 383.1,90.4 383.1,90.4 390.7,90.4 390.7,90.3 392.0,90.3 392.0,90.3 835.8,90.3 835.8,90.2 852.9,90.2 852.9,90.1 854.9,90.1 854.9,90.1 855.6,90.1 855.6,90.0 865.9,90.0 865.9,90.0" fill="none" stroke="#38bdf8" stroke-width="2.5" stroke-linejoin="round" stroke-linecap="round"/>
<polyline points="865.9,90.0 872.0,90.0" fill="none" stroke="#94a3b8" stroke-width="1.5" stroke-dasharray="4 4" stroke-linecap="round"/>
<circle cx="865.9" cy="90.0" r="4" fill="#0ea5e9"/>
<text x="859.9" y="80.0" text-anchor="end" font-family="Inter, system-ui, sans-serif" font-size="13" font-weight="700" fill="#334155">4769</text>
<text x="52.0" y="294" text-anchor="middle" font-family="Inter, system-ui, sans-serif" font-size="11" fill="#94a3b8">Jun 10 05:00</text>
<text x="225.4" y="294" text-anchor="middle" font-family="Inter, system-ui, sans-serif" font-size="11" fill="#94a3b8">Jun 20 19:00</text>
<text x="865.9" y="294" text-anchor="middle" font-family="Inter, system-ui, sans-serif" font-size="11" fill="#94a3b8">Jul 29 21:00</text>
<text x="872.0" y="294" text-anchor="end" font-family="Inter, system-ui, sans-serif" font-size="11" fill="#94a3b8">Jul 30 06:00</text>
</svg>
