<svg xmlns="http://www.w3.org/2000/svg" width="900" height="320" viewBox="0 0 900 320" role="img" aria-labelledby="title desc">
<title id="title">unsorry proofs over time</title>
<desc id="desc">Cumulative kernel-verified proofs over time, by the hour each proof was merged.</desc>
<rect width="900" height="100%" rx="18" fill="#ffffff"/>
<rect x="0.5" y="0.5" width="899" height="319" rx="18" fill="none" stroke="#e2e8f0"/>
<text x="32" y="44" font-family="Inter, system-ui, sans-serif" font-size="28" font-weight="700" fill="#334155">unsorry — Proofs Over Time</text>
<text x="32" y="72" font-family="Inter, system-ui, sans-serif" font-size="13" fill="#64748b">4769 cumulative kernel-verified proofs · merged, hourly · last proof Jul 29 21:00 UTC</text>
<line x1="52" y1="272.0" x2="872" y2="272.0" stroke="#f1f5f9"/>
<text x="44" y="276.0" text-anchor="end" font-family="Inter, system-ui, sans-serif" font-size="11" fill="#94a3b8">0</text>
<line x1="52" y1="226.5" x2="872" y2="226.5" stroke="#f1f5f9"/>
<text x="44" y="230.5" text-anchor="end" font-family="Inter, system-ui, sans-serif" font-size="11" fill="#94a3b8">1192</text>
<line x1="52" y1="181.0" x2="872" y2="181.0" stroke="#f1f5f9"/>
<text x="44" y="185.0" text-anchor="end" font-family="Inter, system-ui, sans-serif" font-size="11" fill="#94a3b8">2384</text>
<line x1="52" y1="135.5" x2="872" y2="135.5" stroke="#f1f5f9"/>
<text x="44" y="139.5" text-anchor="end" font-family="Inter, system-ui, sans-serif" font-size="11" fill="#94a3b8">3577</text>
<line x1="52" y1="90.0" x2="872" y2="90.0" stroke="#f1f5f9"/>
<text x="44" y="94.0" text-anchor="end" font-family="Inter, system-ui, sans-serif" font-size="11" fill="#94a3b8">4769</text>
<polygon points="52.0,272.0 52.0,272.0 52.7,272.0 52.7,271.9 60.9,271.9 60.9,271.5 61.6,271.5 61.6,271.4 62.3,271.4 62.3,271.4 64.4,271.4 64.4,271.3 68.5,271.3 68.5,271.3 77.4,271.3 77.4,271.2 78.1,271.2 78.1,270.9 78.8,270.9 78.8,270.9 80.9,270.9 80.9,270.8 81.6,270.8 81.6,270.7 82.2,270.7 82.2,270.7 82.9,270.7 82.9,270.6 84.3,270.6 84.3,270.5 85.0,270.5 85.0,270.4 87.1,270.4 87.1,270.2 89.8,270.2 89.8,270.1 90.5,270.1 90.5,270.0 91.2,270.0 91.2,269.9 96.7,269.9 96.7,269.9 98.1,269.9 98.1,269.9 101.5,269.9 101.5,269.8 102.2,269.8 102.2,269.8 102.9,269.8 102.9,269.7 105.6,269.7 105.6,269.7 106.3,269.7 106.3,269.4 107.0,269.4 107.0,269.3 107.7,269.3 107.7,268.8 108.4,268.8 108.4,268.7 113.2,268.7 113.2,268.6 115.2,268.6 115.2,268.6 116.6,268.6 116.6,268.6 117.3,268.6 117.3,268.5 118.0,268.5 118.0,268.3 118.7,268.3 118.7,268.3 119.4,268.3 119.4,268.3 120.0,268.3 120.0,268.1 120.7,268.1 120.7,268.0 123.5,268.0 123.5,267.8 124.9,267.8 124.9,267.8 127.6,267.8 127.6,267.8 128.3,267.8 128.3,267.6 129.0,267.6 129.0,267.5 129.7,267.5 129.7,267.5 131.0,267.5 131.0,267.4 131.7,267.4 131.7,266.7 132.4,266.7 132.4,265.9 133.1,265.9 133.1,265.6 133.8,265.6 133.8,265.4 134.5,265.4 134.5,265.4 135.2,265.4 135.2,265.2 135.9,265.2 135.9,264.9 136.5,264.9 136.5,264.7 137.2,264.7 137.2,264.6 137.9,264.6 137.9,264.5 139.3,264.5 139.3,264.4 140.0,264.4 140.0,264.1 140.7,264.1 140.7,263.8 141.4,263.8 141.4,263.5 142.0,263.5 142.0,263.3 143.4,263.3 143.4,263.2 144.8,263.2 144.8,263.2 145.5,263.2 145.5,262.9 146.2,262.9 146.2,262.7 146.9,262.7 146.9,262.2 147.5,262.2 147.5,261.9 148.2,261.9 148.2,261.6 148.9,261.6 148.9,261.3 149.6,261.3 149.6,260.9 150.3,260.9 150.3,260.6 151.0,260.6 151.0,260.2 151.7,260.2 151.7,259.8 152.4,259.8 152.4,259.4 153.0,259.4 153.0,259.1 153.7,259.1 153.7,258.8 154.4,258.8 154.4,258.6 155.1,258.6 155.1,258.3 155.8,258.3 155.8,258.1 156.5,258.1 156.5,257.9 157.2,257.9 157.2,257.7 157.9,257.7 157.9,257.7 158.5,257.7 158.5,257.6 159.9,257.6 159.9,257.5 160.6,257.5 160.6,256.8 161.3,256.8 161.3,256.2 162.0,256.2 162.0,256.1 162.7,256.1 162.7,256.1 164.0,256.1 164.0,256.0 164.7,256.0 164.7,255.9 167.5,255.9 167.5,255.9 168.8,255.9 168.8,255.8 170.9,255.8 170.9,255.7 171.6,255.7 171.6,254.9 172.3,254.9 172.3,254.0 173.0,254.0 173.0,253.8 173.7,253.8 173.7,253.1 174.3,253.1 174.3,252.6 175.0,252.6 175.0,252.2 175.7,252.2 175.7,252.0 176.4,252.0 176.4,251.7 177.1,251.7 177.1,251.5 177.8,251.5 177.8,251.5 178.5,251.5 178.5,251.3 179.2,251.3 179.2,251.2 183.3,251.2 183.3,250.6 184.0,250.6 184.0,249.9 184.7,249.9 184.7,249.8 185.3,249.8 185.3,249.6 186.0,249.6 186.0,249.6 190.8,249.6 190.8,249.6 197.0,249.6 197.0,248.8 197.7,248.8 197.7,248.1 198.4,248.1 198.4,247.4 199.1,247.4 199.1,246.4 199.8,246.4 199.8,246.2 200.5,246.2 200.5,245.8 201.2,245.8 201.2,245.2 201.8,245.2 201.8,244.8 202.5,244.8 202.5,243.7 203.2,243.7 203.2,242.2 203.9,242.2 203.9,240.7 204.6,240.7 204.6,239.0 205.3,239.0 205.3,237.1 206.0,237.1 206.0,235.5 206.7,235.5 206.7,234.5 207.3,234.5 207.3,233.3 208.0,233.3 208.0,231.6 208.7,231.6 208.7,230.1 209.4,230.1 209.4,229.1 210.1,229.1 210.1,228.1 210.8,228.1 210.8,226.6 211.5,226.6 211.5,225.7 212.2,225.7 212.2,224.8 212.8,224.8 212.8,224.0 213.5,224.0 213.5,223.4 214.2,223.4 214.2,222.6 214.9,222.6 214.9,222.1 215.6,222.1 215.6,221.5 216.3,221.5 216.3,221.1 217.0,221.1 217.0,219.7 217.6,219.7 217.6,218.6 218.3,218.6 218.3,218.0 219.0,218.0 219.0,217.8 219.7,217.8 219.7,217.5 220.4,217.5 220.4,216.9 221.1,216.9 221.1,216.4 221.8,216.4 221.8,215.5 222.5,215.5 222.5,214.9 223.1,214.9 223.1,214.4 223.8,214.4 223.8,214.3 224.5,214.3 224.5,214.1 225.2,214.1 225.2,213.6 225.9,213.6 225.9,212.5 226.6,212.5 226.6,210.7 227.3,210.7 227.3,208.9 228.0,208.9 228.0,207.0 228.6,207.0 228.6,205.5 229.3,205.5 229.3,203.7 230.0,203.7 230.0,201.8 230.7,201.8 230.7,199.8 231.4,199.8 231.4,198.0 232.1,198.0 232.1,196.7 232.8,196.7 232.8,195.7 233.5,195.7 233.5,194.5 234.1,194.5 234.1,193.4 234.8,193.4 234.8,192.6 235.5,192.6 235.5,191.7 236.2,191.7 236.2,191.0 236.9,191.0 236.9,190.0 237.6,190.0 237.6,188.7 238.3,188.7 238.3,187.1 239.0,187.1 239.0,185.8 239.6,185.8 239.6,184.6 240.3,184.6 240.3,183.8 241.0,183.8 241.0,183.1 241.7,183.1 241.7,182.4 242.4,182.4 242.4,181.7 243.1,181.7 243.1,180.4 243.8,180.4 243.8,179.3 244.5,179.3 244.5,177.9 245.1,177.9 245.1,176.6 245.8,176.6 245.8,175.4 246.5,175.4 246.5,174.5 247.2,174.5 247.2,174.1 247.9,174.1 247.9,173.6 248.6,173.6 248.6,173.0 249.3,173.0 249.3,173.0 250.0,173.0 250.0,172.9 250.6,172.9 250.6,172.6 251.3,172.6 251.3,172.5 252.0,172.5 252.0,172.5 252.7,172.5 252.7,172.3 253.4,172.3 253.4,172.2 255.5,172.2 255.5,172.2 256.1,172.2 256.1,172.1 256.8,172.1 256.8,171.9 257.5,171.9 257.5,170.3 258.2,170.3 258.2,169.0 258.9,169.0 258.9,167.8 259.6,167.8 259.6,166.5 260.3,166.5 260.3,165.3 261.0,165.3 261.0,164.1 261.6,164.1 261.6,162.9 262.3,162.9 262.3,161.7 263.0,161.7 263.0,160.4 263.7,160.4 263.7,159.3 264.4,159.3 264.4,158.1 265.1,158.1 265.1,157.0 265.8,157.0 265.8,155.9 266.5,155.9 266.5,154.7 267.1,154.7 267.1,153.6 267.8,153.6 267.8,152.7 268.5,152.7 268.5,151.6 269.2,151.6 269.2,150.5 269.9,150.5 269.9,149.5 270.6,149.5 270.6,148.5 271.3,148.5 271.3,147.4 271.9,147.4 271.9,146.7 272.6,146.7 272.6,146.1 273.3,146.1 273.3,145.4 274.0,145.4 274.0,144.4 274.7,144.4 274.7,143.5 275.4,143.5 275.4,142.7 276.1,142.7 276.1,141.6 276.8,141.6 276.8,140.8 277.4,140.8 277.4,140.0 278.1,140.0 278.1,139.0 278.8,139.0 278.8,138.1 279.5,138.1 279.5,137.2 280.2,137.2 280.2,136.4 280.9,136.4 280.9,135.4 281.6,135.4 281.6,134.7 282.3,134.7 282.3,133.7 282.9,133.7 282.9,133.0 283.6,133.0 283.6,132.3 284.3,132.3 284.3,131.4 285.0,131.4 285.0,130.6 285.7,130.6 285.7,129.9 286.4,129.9 286.4,129.3 287.1,129.3 287.1,128.7 287.8,128.7 287.8,128.4 288.4,128.4 288.4,128.2 289.1,128.2 289.1,127.4 289.8,127.4 289.8,126.7 290.5,126.7 290.5,125.9 291.2,125.9 291.2,125.1 291.9,125.1 291.9,124.5 292.6,124.5 292.6,123.7 293.3,123.7 293.3,123.0 293.9,123.0 293.9,122.3 294.6,122.3 294.6,121.6 295.3,121.6 295.3,121.0 296.0,121.0 296.0,120.3 296.7,120.3 296.7,119.7 297.4,119.7 297.4,118.9 298.1,118.9 298.1,118.3 298.8,118.3 298.8,117.6 299.4,117.6 299.4,116.9 300.1,116.9 300.1,116.3 300.8,116.3 300.8,115.7 301.5,115.7 301.5,114.9 302.2,114.9 302.2,114.4 302.9,114.4 302.9,113.9 303.6,113.9 303.6,113.1 304.3,113.1 304.3,112.3 304.9,112.3 304.9,111.7 305.6,111.7 305.6,111.0 306.3,111.0 306.3,110.3 307.0,110.3 307.0,109.7 307.7,109.7 307.7,109.1 308.4,109.1 308.4,108.4 309.1,108.4 309.1,107.9 309.8,107.9 309.8,107.6 310.4,107.6 310.4,106.9 311.1,106.9 311.1,106.3 311.8,106.3 311.8,105.6 312.5,105.6 312.5,104.9 313.2,104.9 313.2,104.3 313.9,104.3 313.9,103.7 314.6,103.7 314.6,103.1 315.3,103.1 315.3,102.5 315.9,102.5 315.9,101.8 316.6,101.8 316.6,101.2 317.3,101.2 317.3,100.6 318.0,100.6 318.0,100.0 318.7,100.0 318.7,99.3 319.4,99.3 319.4,99.0 320.1,99.0 320.1,98.3 320.8,98.3 320.8,97.7 321.4,97.7 321.4,97.4 322.1,97.4 322.1,96.8 322.8,96.8 322.8,96.0 366.8,96.0 366.8,94.8 368.9,94.8 368.9,93.7 369.6,93.7 369.6,92.9 370.2,92.9 370.2,92.6 370.9,92.6 370.9,92.4 371.6,92.4 371.6,92.4 382.6,92.4 382.6,90.5 384.0,90.5 384.0,90.4 385.4,90.4 385.4,90.4 392.9,90.4 392.9,90.3 394.3,90.3 394.3,90.3 841.1,90.3 841.1,90.2 858.3,90.2 858.3,90.1 860.3,90.1 860.3,90.1 861.0,90.1 861.0,90.0 871.3,90.0 871.3,90.0 872.0,90.0 872.0,272.0" fill="#e0f2fe" opacity="0.55"/>
<polyline points="52.0,272.0 52.7,272.0 52.7,271.9 60.9,271.9 60.9,271.5 61.6,271.5 61.6,271.4 62.3,271.4 62.3,271.4 64.4,271.4 64.4,271.3 68.5,271.3 68.5,271.3 77.4,271.3 77.4,271.2 78.1,271.2 78.1,270.9 78.8,270.9 78.8,270.9 80.9,270.9 80.9,270.8 81.6,270.8 81.6,270.7 82.2,270.7 82.2,270.7 82.9,270.7 82.9,270.6 84.3,270.6 84.3,270.5 85.0,270.5 85.0,270.4 87.1,270.4 87.1,270.2 89.8,270.2 89.8,270.1 90.5,270.1 90.5,270.0 91.2,270.0 91.2,269.9 96.7,269.9 96.7,269.9 98.1,269.9 98.1,269.9 101.5,269.9 101.5,269.8 102.2,269.8 102.2,269.8 102.9,269.8 102.9,269.7 105.6,269.7 105.6,269.7 106.3,269.7 106.3,269.4 107.0,269.4 107.0,269.3 107.7,269.3 107.7,268.8 108.4,268.8 108.4,268.7 113.2,268.7 113.2,268.6 115.2,268.6 115.2,268.6 116.6,268.6 116.6,268.6 117.3,268.6 117.3,268.5 118.0,268.5 118.0,268.3 118.7,268.3 118.7,268.3 119.4,268.3 119.4,268.3 120.0,268.3 120.0,268.1 120.7,268.1 120.7,268.0 123.5,268.0 123.5,267.8 124.9,267.8 124.9,267.8 127.6,267.8 127.6,267.8 128.3,267.8 128.3,267.6 129.0,267.6 129.0,267.5 129.7,267.5 129.7,267.5 131.0,267.5 131.0,267.4 131.7,267.4 131.7,266.7 132.4,266.7 132.4,265.9 133.1,265.9 133.1,265.6 133.8,265.6 133.8,265.4 134.5,265.4 134.5,265.4 135.2,265.4 135.2,265.2 135.9,265.2 135.9,264.9 136.5,264.9 136.5,264.7 137.2,264.7 137.2,264.6 137.9,264.6 137.9,264.5 139.3,264.5 139.3,264.4 140.0,264.4 140.0,264.1 140.7,264.1 140.7,263.8 141.4,263.8 141.4,263.5 142.0,263.5 142.0,263.3 143.4,263.3 143.4,263.2 144.8,263.2 144.8,263.2 145.5,263.2 145.5,262.9 146.2,262.9 146.2,262.7 146.9,262.7 146.9,262.2 147.5,262.2 147.5,261.9 148.2,261.9 148.2,261.6 148.9,261.6 148.9,261.3 149.6,261.3 149.6,260.9 150.3,260.9 150.3,260.6 151.0,260.6 151.0,260.2 151.7,260.2 151.7,259.8 152.4,259.8 152.4,259.4 153.0,259.4 153.0,259.1 153.7,259.1 153.7,258.8 154.4,258.8 154.4,258.6 155.1,258.6 155.1,258.3 155.8,258.3 155.8,258.1 156.5,258.1 156.5,257.9 157.2,257.9 157.2,257.7 157.9,257.7 157.9,257.7 158.5,257.7 158.5,257.6 159.9,257.6 159.9,257.5 160.6,257.5 160.6,256.8 161.3,256.8 161.3,256.2 162.0,256.2 162.0,256.1 162.7,256.1 162.7,256.1 164.0,256.1 164.0,256.0 164.7,256.0 164.7,255.9 167.5,255.9 167.5,255.9 168.8,255.9 168.8,255.8 170.9,255.8 170.9,255.7 171.6,255.7 171.6,254.9 172.3,254.9 172.3,254.0 173.0,254.0 173.0,253.8 173.7,253.8 173.7,253.1 174.3,253.1 174.3,252.6 175.0,252.6 175.0,252.2 175.7,252.2 175.7,252.0 176.4,252.0 176.4,251.7 177.1,251.7 177.1,251.5 177.8,251.5 177.8,251.5 178.5,251.5 178.5,251.3 179.2,251.3 179.2,251.2 183.3,251.2 183.3,250.6 184.0,250.6 184.0,249.9 184.7,249.9 184.7,249.8 185.3,249.8 185.3,249.6 186.0,249.6 186.0,249.6 190.8,249.6 190.8,249.6 197.0,249.6 197.0,248.8 197.7,248.8 197.7,248.1 198.4,248.1 198.4,247.4 199.1,247.4 199.1,246.4 199.8,246.4 199.8,246.2 200.5,246.2 200.5,245.8 201.2,245.8 201.2,245.2 201.8,245.2 201.8,244.8 202.5,244.8 202.5,243.7 203.2,243.7 203.2,242.2 203.9,242.2 203.9,240.7 204.6,240.7 204.6,239.0 205.3,239.0 205.3,237.1 206.0,237.1 206.0,235.5 206.7,235.5 206.7,234.5 207.3,234.5 207.3,233.3 208.0,233.3 208.0,231.6 208.7,231.6 208.7,230.1 209.4,230.1 209.4,229.1 210.1,229.1 210.1,228.1 210.8,228.1 210.8,226.6 211.5,226.6 211.5,225.7 212.2,225.7 212.2,224.8 212.8,224.8 212.8,224.0 213.5,224.0 213.5,223.4 214.2,223.4 214.2,222.6 214.9,222.6 214.9,222.1 215.6,222.1 215.6,221.5 216.3,221.5 216.3,221.1 217.0,221.1 217.0,219.7 217.6,219.7 217.6,218.6 218.3,218.6 218.3,218.0 219.0,218.0 219.0,217.8 219.7,217.8 219.7,217.5 220.4,217.5 220.4,216.9 221.1,216.9 221.1,216.4 221.8,216.4 221.8,215.5 222.5,215.5 222.5,214.9 223.1,214.9 223.1,214.4 223.8,214.4 223.8,214.3 224.5,214.3 224.5,214.1 225.2,214.1 225.2,213.6 225.9,213.6 225.9,212.5 226.6,212.5 226.6,210.7 227.3,210.7 227.3,208.9 228.0,208.9 228.0,207.0 228.6,207.0 228.6,205.5 229.3,205.5 229.3,203.7 230.0,203.7 230.0,201.8 230.7,201.8 230.7,199.8 231.4,199.8 231.4,198.0 232.1,198.0 232.1,196.7 232.8,196.7 232.8,195.7 233.5,195.7 233.5,194.5 234.1,194.5 234.1,193.4 234.8,193.4 234.8,192.6 235.5,192.6 235.5,191.7 236.2,191.7 236.2,191.0 236.9,191.0 236.9,190.0 237.6,190.0 237.6,188.7 238.3,188.7 238.3,187.1 239.0,187.1 239.0,185.8 239.6,185.8 239.6,184.6 240.3,184.6 240.3,183.8 241.0,183.8 241.0,183.1 241.7,183.1 241.7,182.4 242.4,182.4 242.4,181.7 243.1,181.7 243.1,180.4 243.8,180.4 243.8,179.3 244.5,179.3 244.5,177.9 245.1,177.9 245.1,176.6 245.8,176.6 245.8,175.4 246.5,175.4 246.5,174.5 247.2,174.5 247.2,174.1 247.9,174.1 247.9,173.6 248.6,173.6 248.6,173.0 249.3,173.0 249.3,173.0 250.0,173.0 250.0,172.9 250.6,172.9 250.6,172.6 251.3,172.6 251.3,172.5 252.0,172.5 252.0,172.5 252.7,172.5 252.7,172.3 253.4,172.3 253.4,172.2 255.5,172.2 255.5,172.2 256.1,172.2 256.1,172.1 256.8,172.1 256.8,171.9 257.5,171.9 257.5,170.3 258.2,170.3 258.2,169.0 258.9,169.0 258.9,167.8 259.6,167.8 259.6,166.5 260.3,166.5 260.3,165.3 261.0,165.3 261.0,164.1 261.6,164.1 261.6,162.9 262.3,162.9 262.3,161.7 263.0,161.7 263.0,160.4 263.7,160.4 263.7,159.3 264.4,159.3 264.4,158.1 265.1,158.1 265.1,157.0 265.8,157.0 265.8,155.9 266.5,155.9 266.5,154.7 267.1,154.7 267.1,153.6 267.8,153.6 267.8,152.7 268.5,152.7 268.5,151.6 269.2,151.6 269.2,150.5 269.9,150.5 269.9,149.5 270.6,149.5 270.6,148.5 271.3,148.5 271.3,147.4 271.9,147.4 271.9,146.7 272.6,146.7 272.6,146.1 273.3,146.1 273.3,145.4 274.0,145.4 274.0,144.4 274.7,144.4 274.7,143.5 275.4,143.5 275.4,142.7 276.1,142.7 276.1,141.6 276.8,141.6 276.8,140.8 277.4,140.8 277.4,140.0 278.1,140.0 278.1,139.0 278.8,139.0 278.8,138.1 279.5,138.1 279.5,137.2 280.2,137.2 280.2,136.4 280.9,136.4 280.9,135.4 281.6,135.4 281.6,134.7 282.3,134.7 282.3,133.7 282.9,133.7 282.9,133.0 283.6,133.0 283.6,132.3 284.3,132.3 284.3,131.4 285.0,131.4 285.0,130.6 285.7,130.6 285.7,129.9 286.4,129.9 286.4,129.3 287.1,129.3 287.1,128.7 287.8,128.7 287.8,128.4 288.4,128.4 288.4,128.2 289.1,128.2 289.1,127.4 289.8,127.4 289.8,126.7 290.5,126.7 290.5,125.9 291.2,125.9 291.2,125.1 291.9,125.1 291.9,124.5 292.6,124.5 292.6,123.7 293.3,123.7 293.3,123.0 293.9,123.0 293.9,122.3 294.6,122.3 294.6,121.6 295.3,121.6 295.3,121.0 296.0,121.0 296.0,120.3 296.7,120.3 296.7,119.7 297.4,119.7 297.4,118.9 298.1,118.9 298.1,118.3 298.8,118.3 298.8,117.6 299.4,117.6 299.4,116.9 300.1,116.9 300.1,116.3 300.8,116.3 300.8,115.7 301.5,115.7 301.5,114.9 302.2,114.9 302.2,114.4 302.9,114.4 302.9,113.9 303.6,113.9 303.6,113.1 304.3,113.1 304.3,112.3 304.9,112.3 304.9,111.7 305.6,111.7 305.6,111.0 306.3,111.0 306.3,110.3 307.0,110.3 307.0,109.7 307.7,109.7 307.7,109.1 308.4,109.1 308.4,108.4 309.1,108.4 309.1,107.9 309.8,107.9 309.8,107.6 310.4,107.6 310.4,106.9 311.1,106.9 311.1,106.3 311.8,106.3 311.8,105.6 312.5,105.6 312.5,104.9 313.2,104.9 313.2,104.3 313.9,104.3 313.9,103.7 314.6,103.7 314.6,103.1 315.3,103.1 315.3,102.5 315.9,102.5 315.9,101.8 316.6,101.8 316.6,101.2 317.3,101.2 317.3,100.6 318.0,100.6 318.0,100.0 318.7,100.0 318.7,99.3 319.4,99.3 319.4,99.0 320.1,99.0 320.1,98.3 320.8,98.3 320.8,97.7 321.4,97.7 321.4,97.4 322.1,97.4 322.1,96.8 322.8,96.8 322.8,96.0 366.8,96.0 366.8,94.8 368.9,94.8 368.9,93.7 369.6,93.7 369.6,92.9 370.2,92.9 370.2,92.6 370.9,92.6 370.9,92.4 371.6,92.4 371.6,92.4 382.6,92.4 382.6,90.5 384.0,90.5 384.0,90.4 385.4,90.4 385.4,90.4 392.9,90.4 392.9,90.3 394.3,90.3 394.3,90.3 841.1,90.3 841.1,90.2 858.3,90.2 858.3,90.1 860.3,90.1 860.3,90.1 861.0,90.1 861.0,90.0 871.3,90.0 871.3,90.0" fill="none" stroke="#38bdf8" stroke-width="2.5" stroke-linejoin="round" stroke-linecap="round"/>
<polyline points="871.3,90.0 872.0,90.0" fill="none" stroke="#94a3b8" stroke-width="1.5" stroke-dasharray="4 4" stroke-linecap="round"/>
<circle cx="871.3" cy="90.0" r="4" fill="#0ea5e9"/>
<text x="865.3" y="80.0" text-anchor="end" font-family="Inter, system-ui, sans-serif" font-size="13" font-weight="700" fill="#334155">4769</text>
<text x="52.0" y="294" text-anchor="middle" font-family="Inter, system-ui, sans-serif" font-size="11" fill="#94a3b8">Jun 10 05:00</text>
<text x="226.6" y="294" text-anchor="middle" font-family="Inter, system-ui, sans-serif" font-size="11" fill="#94a3b8">Jun 20 19:00</text>
<text x="871.3" y="294" text-anchor="middle" font-family="Inter, system-ui, sans-serif" font-size="11" fill="#94a3b8">Jul 29 21:00</text>
<text x="872.0" y="294" text-anchor="end" font-family="Inter, system-ui, sans-serif" font-size="11" fill="#94a3b8">Jul 29 22:00</text>
</svg>
